<?xml version="1.0" encoding="iso-8859-1"?>
<!-- Generator: Adobe Illustrator 19.0.0, SVG Export Plug-In . SVG Version: 6.00 Build 0)  -->
<svg version="1.1" id="Layer_1" xmlns="http://www.w3.org/2000/svg" xmlns:xlink="http://www.w3.org/1999/xlink" x="0px" y="0px"
	 viewBox="0 0 512 512" style="enable-background:new 0 0 512 512;" xml:space="preserve">
<g>
	<path style="fill:#FFB45A;" d="M377.612,406.087c-0.135,0-0.268-0.011-0.402-0.018h-6.452v17.655h17.655v-17.655h-10.483
		C377.825,406.072,377.718,406.087,377.612,406.087z"/>
	<path style="fill:#FFB45A;" d="M355.33,346.062c-0.257-0.585-0.494-1.18-0.708-1.786h-1.586
		C353.811,344.858,354.575,345.454,355.33,346.062z"/>
	<rect x="211.862" y="406.069" style="fill:#FFB45A;" width="17.655" height="17.655"/>
	<path style="fill:#FFB45A;" d="M406.069,105.931c-14.626,0-26.483-11.857-26.483-26.483V0H141.241
		c-14.626,0-26.483,11.857-26.483,26.483v61.793h97.103c9.751,0,17.655,7.905,17.655,17.655v123.586
		c0,9.75-7.904,17.655-17.655,17.655h-97.103v238.345c0,14.626,11.857,26.483,26.483,26.483h317.793
		c14.626,0,26.483-11.857,26.483-26.483V105.931H406.069z M384.352,388.414h12.889c4.875,0,8.828,3.948,8.828,8.828v35.31
		c0,4.879-3.953,8.828-8.828,8.828h-35.31c-4.875,0-8.828-3.948-8.828-8.828v-35.31c0-4.879,3.953-8.828,8.828-8.828h3.678
		c-7.172-17.658-21.327-31.814-38.988-38.982v3.671c0,4.879-3.953,8.828-8.828,8.828h-35.31c-4.875,0-8.828-3.948-8.828-8.828
		v-3.679c-17.657,7.17-31.812,21.327-38.986,38.989h3.676c4.875,0,8.828,3.948,8.828,8.828v35.31c0,4.879-3.953,8.828-8.828,8.828
		h-35.31c-4.875,0-8.828-3.948-8.828-8.828v-35.31c0-4.879,3.953-8.828,8.828-8.828h12.887c3.322-10.549,8.586-20.259,15.374-28.706
		c-3.25,1.426-6.836,2.223-10.606,2.223c-14.603,0-26.483-11.88-26.483-26.483c0-14.603,11.88-26.483,26.483-26.483
		c11.509,0,21.321,7.38,24.964,17.655h28.001v-8.828c0-4.879,3.953-8.828,8.828-8.828h35.31c4.875,0,8.828,3.948,8.828,8.828v8.828
		h28.001c3.644-10.275,13.455-17.655,24.964-17.655c14.603,0,26.483,11.88,26.483,26.483c0,14.603-11.88,26.483-26.483,26.483
		c-3.774,0-7.362-0.799-10.614-2.228C375.762,368.151,381.027,377.864,384.352,388.414z"/>
	<rect x="291.31" y="326.621" style="fill:#FFB45A;" width="17.655" height="17.655"/>
	<path style="fill:#FFB45A;" d="M245.654,344.276c-0.214,0.602-0.449,1.194-0.704,1.775c0.75-0.604,1.51-1.196,2.28-1.775H245.654z"
		/>
	<path style="fill:#FFB45A;" d="M388.414,335.448c0-4.871-3.961-8.828-8.828-8.828s-8.828,3.957-8.828,8.828
		c0,4.871,3.961,8.828,8.828,8.828S388.414,340.319,388.414,335.448z"/>
	<path style="fill:#FFB45A;" d="M220.69,326.621c-4.866,0-8.828,3.957-8.828,8.828c0,4.871,3.961,8.828,8.828,8.828
		s8.828-3.957,8.828-8.828C229.517,330.578,225.556,326.621,220.69,326.621z"/>
</g>
<g>
	<path style="fill:#FF9646;" d="M406.069,105.931h79.448L379.586,0v79.448C379.586,94.074,391.443,105.931,406.069,105.931z"/>
	<path style="fill:#FF9646;" d="M109.587,143.767c-1.138-3.043-6.189-2.983-7.31,0l-12.295,32.785h31.897L109.587,143.767z"/>
	<path style="fill:#FF9646;" d="M229.517,229.517V105.931c0-9.75-7.904-17.655-17.655-17.655h-97.103H44.138
		c-9.751,0-17.655,7.905-17.655,17.655v123.586c0,9.75,7.904,17.655,17.655,17.655h70.621h97.103
		C221.613,247.172,229.517,239.267,229.517,229.517z M144.341,211.302c-1.022,0.38-2.069,0.561-3.1,0.561
		c-3.573,0-6.935-2.182-8.267-5.725l-4.474-11.93H83.362l-4.474,11.932c-1.716,4.561-6.793,6.871-11.367,5.164
		c-4.565-1.716-6.879-6.802-5.169-11.371l23.388-62.37c3.139-8.354,11.243-13.975,20.173-13.975c8.966,0,17.069,5.621,20.207,13.974
		l23.388,62.37C151.22,204.5,148.905,209.587,144.341,211.302z M185.379,203.034c0,4.879-3.953,8.828-8.828,8.828
		s-8.828-3.948-8.828-8.828v-70.621c0-4.879,3.953-8.828,8.828-8.828s8.828,3.948,8.828,8.828V203.034z"/>
</g>
<g>
	<path style="fill:#FFFFFF;" d="M126.121,137.56c-3.138-8.353-11.242-13.974-20.207-13.974c-8.931,0-17.035,5.621-20.172,13.974
		l-23.388,62.37c-1.711,4.569,0.604,9.655,5.169,11.371c4.574,1.707,9.651-0.604,11.367-5.164l4.473-11.93h45.139l4.474,11.932
		c1.332,3.543,4.694,5.725,8.267,5.725c1.031,0,2.078-0.181,3.1-0.561c4.565-1.716,6.879-6.802,5.169-11.371L126.121,137.56z
		 M89.982,176.552l12.294-32.785c1.121-2.983,6.173-3.043,7.31,0l12.295,32.785H89.982z"/>
	<path style="fill:#FFFFFF;" d="M176.552,123.586c-4.875,0-8.828,3.948-8.828,8.828v70.621c0,4.879,3.953,8.828,8.828,8.828
		s8.828-3.948,8.828-8.828v-70.621C185.379,127.534,181.427,123.586,176.552,123.586z"/>
	<path style="fill:#FFFFFF;" d="M406.069,335.448c0-14.603-11.88-26.483-26.483-26.483c-11.509,0-21.321,7.38-24.964,17.655h-28.001
		v-8.828c0-4.879-3.953-8.828-8.828-8.828h-35.31c-4.875,0-8.828,3.948-8.828,8.828v8.828h-28.001
		c-3.644-10.275-13.455-17.655-24.964-17.655c-14.603,0-26.483,11.88-26.483,26.483c0,14.603,11.88,26.483,26.483,26.483
		c3.77,0,7.357-0.798,10.606-2.223c-6.788,8.447-12.052,18.157-15.374,28.706h-12.887c-4.875,0-8.828,3.948-8.828,8.828v35.31
		c0,4.879,3.953,8.828,8.828,8.828h35.31c4.875,0,8.828-3.948,8.828-8.828v-35.31c0-4.879-3.953-8.828-8.828-8.828h-3.676
		c7.172-17.662,21.329-31.819,38.986-38.989v3.679c0,4.879,3.953,8.828,8.828,8.828h35.31c4.875,0,8.828-3.948,8.828-8.828v-3.671
		c17.66,7.169,31.816,21.323,38.988,38.982h-3.678c-4.875,0-8.828,3.948-8.828,8.828v35.31c0,4.879,3.953,8.828,8.828,8.828h35.31
		c4.875,0,8.828-3.948,8.828-8.828v-35.31c0-4.879-3.953-8.828-8.828-8.828h-12.889c-3.325-10.55-8.59-20.263-15.38-28.711
		c3.252,1.429,6.84,2.228,10.614,2.228C394.189,361.931,406.069,350.051,406.069,335.448z M229.517,423.724h-17.655v-17.655h17.655
		V423.724z M388.414,423.724h-17.655v-17.655h6.452c0.134,0.007,0.267,0.018,0.402,0.018c0.106,0,0.213-0.013,0.319-0.018h10.483
		V423.724z M355.33,346.062c-0.755-0.607-1.519-1.204-2.294-1.786h1.586C354.837,344.882,355.073,345.478,355.33,346.062z
		 M245.654,344.276h1.576c-0.77,0.579-1.529,1.172-2.28,1.775C245.205,345.47,245.44,344.878,245.654,344.276z M220.69,344.276
		c-4.866,0-8.828-3.957-8.828-8.828c0-4.871,3.961-8.828,8.828-8.828s8.828,3.957,8.828,8.828
		C229.517,340.319,225.556,344.276,220.69,344.276z M308.966,344.276H291.31v-17.655h17.655V344.276z M370.759,335.448
		c0-4.871,3.961-8.828,8.828-8.828s8.828,3.957,8.828,8.828c0,4.871-3.961,8.828-8.828,8.828S370.759,340.319,370.759,335.448z"/>
</g>
<g>
</g>
<g>
</g>
<g>
</g>
<g>
</g>
<g>
</g>
<g>
</g>
<g>
</g>
<g>
</g>
<g>
</g>
<g>
</g>
<g>
</g>
<g>
</g>
<g>
</g>
<g>
</g>
<g>
</g>
</svg>
