<?xml version="1.0" encoding="iso-8859-1"?>
<!-- Generator: Adobe Illustrator 19.0.0, SVG Export Plug-In . SVG Version: 6.00 Build 0)  -->
<svg version="1.1" id="Layer_1" xmlns="http://www.w3.org/2000/svg" xmlns:xlink="http://www.w3.org/1999/xlink" x="0px" y="0px"
	 viewBox="0 0 512 512" style="enable-background:new 0 0 512 512;" xml:space="preserve">
<g>
	<path style="fill:#D2DCF0;" d="M401.655,132.414l-61.793-61.793V35.31H198.621v17.655h123.586v72.828
		c0,13.407,10.869,24.276,24.276,24.276h72.828v335.448c0,2.675-0.401,5.256-1.138,7.69c10.875-3.296,18.793-13.394,18.793-25.345
		V132.414H401.655z"/>
	<path style="fill:#D2DCF0;" d="M180.966,52.966V35.31h-35.31H128h-8.828c-11.951,0-22.049,7.918-25.345,18.793
		c2.434-0.737,5.015-1.138,7.69-1.138H180.966z"/>
</g>
<polygon style="fill:#BEC8DC;" points="401.655,132.414 436.966,132.414 339.862,35.31 339.862,70.621 "/>
<path style="fill:#E4EAF6;" d="M419.31,150.069h-72.828c-13.407,0-24.276-10.869-24.276-24.276V52.966H198.621v88.276
	c0,14.603-11.88,26.483-26.483,26.483s-26.483-11.88-26.483-26.483V79.448c0-4.879,3.953-8.828,8.828-8.828s8.828,3.948,8.828,8.828
	v61.793c0,4.871,3.961,8.828,8.828,8.828s8.828-3.957,8.828-8.828V52.966h-79.448c-2.675,0-5.256,0.401-7.69,1.138
	c-10.874,3.296-18.793,13.394-18.793,25.345v406.069c0,14.626,11.857,26.483,26.483,26.483h291.31
	c11.951,0,22.049-7.918,25.345-18.793c0.737-2.434,1.138-5.015,1.138-7.69V150.069z M119.172,385.916V282.483
	c0-9.75,7.904-17.655,17.655-17.655h14.322h59.901h63.417h59.901h23.149c9.751,0,17.655,7.905,17.655,17.655v58.494v73.92
	c0,8.532-6.051,15.65-14.097,17.297c-1.15,0.235-2.339,0.359-3.559,0.359h-76.148h-49.159h-95.383c-1.218,0-2.409-0.124-3.559-0.359
	c-8.045-1.646-14.097-8.765-14.097-17.297V385.916z"/>
<path style="fill:#FFCD69;" d="M145.655,26.483c0-4.871,3.961-8.828,8.828-8.828h17.655c4.866,0,8.828,3.957,8.828,8.828v8.828
	v17.655v88.276c0,4.871-3.961,8.828-8.828,8.828s-8.828-3.957-8.828-8.828V79.448c0-4.879-3.953-8.828-8.828-8.828
	s-8.828,3.948-8.828,8.828v61.793c0,14.603,11.88,26.483,26.483,26.483s26.483-11.88,26.483-26.483V52.966V35.31v-8.828
	C198.621,11.88,186.741,0,172.138,0h-17.655C139.88,0,128,11.88,128,26.483v8.828h17.655V26.483z"/>
<g>
	<path style="fill:#B9EBFF;" d="M361.076,432.193c8.045-1.646,14.097-8.765,14.097-17.297
		C375.172,423.427,369.12,430.547,361.076,432.193z"/>
	<path style="fill:#B9EBFF;" d="M133.269,432.193c-8.044-1.646-14.097-8.766-14.097-17.297
		C119.172,423.428,125.224,430.547,133.269,432.193z"/>
	<path style="fill:#B9EBFF;" d="M375.172,340.977v-58.494c0-9.75-7.904-17.655-17.655-17.655h-23.149
		c8.537,14.671,13.694,31.545,14.264,49.609L375.172,340.977z"/>
	<path style="fill:#B9EBFF;" d="M136.828,317.793c0-19.33,5.257-37.388,14.322-52.966h-14.322c-9.751,0-17.655,7.905-17.655,17.655
		v103.433l26.257-26.257C139.897,346.816,136.828,332.664,136.828,317.793z"/>
	<path style="fill:#B9EBFF;" d="M136.828,432.552c-1.218,0-2.409-0.124-3.559-0.359
		C134.419,432.428,135.609,432.552,136.828,432.552z"/>
	<path style="fill:#B9EBFF;" d="M361.076,432.193c-1.15,0.235-2.339,0.359-3.559,0.359
		C358.735,432.552,359.926,432.428,361.076,432.193z"/>
</g>
<g>
	<path style="fill:#D2F5F0;" d="M145.429,359.659l19.04-19.04c5.282-5.283,13.074-6.503,19.532-3.691
		c-1.962-6.026-3.036-12.454-3.036-19.135c0-22.519,12.085-42.166,30.084-52.966h-59.901c-9.065,15.577-14.322,33.635-14.322,52.966
		C136.828,332.664,139.897,346.816,145.429,359.659z"/>
	<path style="fill:#D2F5F0;" d="M304.499,315.348l10.038-10.038c6.895-6.895,18.073-6.895,24.968,0l9.127,9.127
		c-0.572-18.062-5.727-34.936-14.264-49.609h-59.901C291.811,275.234,303.66,293.857,304.499,315.348z"/>
	<path style="fill:#D2F5F0;" d="M226.118,377.301l8.214,8.214l5.991-5.991C235.418,379.334,230.665,378.57,226.118,377.301z"/>
</g>
<path style="fill:#FCFFDC;" d="M180.966,317.793c0,6.681,1.074,13.109,3.036,19.135c1.972,0.858,3.823,2.079,5.437,3.691
	l36.681,36.681c4.546,1.269,9.3,2.034,14.205,2.223l64.177-64.177c-0.84-21.491-12.687-40.114-30.033-50.52H211.05
	C193.05,275.627,180.966,295.274,180.966,317.793z M242.759,282.483c19.501,0,35.31,15.809,35.31,35.31
	c0,19.501-15.809,35.31-35.31,35.31s-35.31-15.809-35.31-35.31C207.448,298.292,223.257,282.483,242.759,282.483z"/>
<path style="fill:#FFF5A5;" d="M242.759,353.103c19.501,0,35.31-15.809,35.31-35.31c0-19.501-15.809-35.31-35.31-35.31
	s-35.31,15.809-35.31,35.31C207.448,337.294,223.257,353.103,242.759,353.103z M242.759,300.138c9.751,0,17.655,7.905,17.655,17.655
	c0,9.75-7.904,17.655-17.655,17.655s-17.655-7.905-17.655-17.655C225.103,308.043,233.007,300.138,242.759,300.138z"/>
<circle style="fill:#FFDC69;" cx="242.759" cy="317.793" r="17.655"/>
<path style="fill:#B4EBBE;" d="M339.506,305.31c-6.894-6.895-18.073-6.895-24.968,0L304.5,315.348l-64.177,64.177l-5.991,5.991
	l47.037,47.037h76.148c1.218,0,2.409-0.124,3.559-0.359c8.044-1.646,14.097-8.766,14.097-17.297v-73.92l-26.54-26.54L339.506,305.31
	z"/>
<path style="fill:#A0D778;" d="M133.269,432.193c1.15,0.235,2.339,0.359,3.559,0.359h95.382h49.159l-47.037-47.037l-8.214-8.214
	l-36.681-36.681c-1.612-1.612-3.465-2.833-5.437-3.691c-6.458-2.812-14.25-1.591-19.532,3.691l-19.04,19.04l-26.255,26.255v28.981
	C119.172,423.427,125.225,430.547,133.269,432.193z"/>
<g>
</g>
<g>
</g>
<g>
</g>
<g>
</g>
<g>
</g>
<g>
</g>
<g>
</g>
<g>
</g>
<g>
</g>
<g>
</g>
<g>
</g>
<g>
</g>
<g>
</g>
<g>
</g>
<g>
</g>
</svg>
