<?xml version="1.0" encoding="iso-8859-1"?>
<!-- Generator: Adobe Illustrator 19.0.0, SVG Export Plug-In . SVG Version: 6.00 Build 0)  -->
<svg version="1.1" id="Layer_1" xmlns="http://www.w3.org/2000/svg" xmlns:xlink="http://www.w3.org/1999/xlink" x="0px" y="0px"
	 viewBox="0 0 512 512" style="enable-background:new 0 0 512 512;" xml:space="preserve">
<g>
	<path style="fill:#E4EAF6;" d="M263,382.173c3.448-3.448,9.035-3.448,12.483,0l15.827,15.828l51.138-51.138
		c3.448-3.448,9.035-3.448,12.483,0l24.661,24.661l-0.007-44.903h-68.557c4.203,4.689,6.764,10.877,6.764,17.655
		c0,14.603-11.88,26.483-26.483,26.483c-14.603,0-26.483-11.88-26.483-26.483c0-6.778,2.562-12.967,6.764-17.655H220.69v97.103
		h0.758L263,382.173z"/>
	<path style="fill:#E4EAF6;" d="M282.483,344.276c0,4.871,3.961,8.828,8.828,8.828s8.828-3.957,8.828-8.828
		c0-4.871-3.961-8.828-8.828-8.828S282.483,339.405,282.483,344.276z"/>
	<polygon style="fill:#E4EAF6;" points="246.413,423.724 292.068,423.724 269.241,400.897 	"/>
	<polygon style="fill:#E4EAF6;" points="348.69,365.587 303.793,410.483 317.034,423.724 379.599,423.724 379.595,396.492 	"/>
	<path style="fill:#E4EAF6;" d="M406.069,105.931c-14.626,0-26.483-11.857-26.483-26.483V0H141.241
		c-14.626,0-26.483,11.857-26.483,26.483v61.793h158.897c9.751,0,17.655,7.905,17.655,17.655v123.586
		c0,9.75-7.904,17.655-17.655,17.655H114.759v238.345c0,14.626,11.857,26.483,26.483,26.483h317.793
		c14.626,0,26.483-11.857,26.483-26.483V105.931H406.069z M397.241,423.724c0,9.732-7.918,17.655-17.655,17.655H220.69
		c-9.737,0-17.655-7.923-17.655-17.655v-97.103c0-9.732,7.918-17.655,17.655-17.655h158.897c9.737,0,17.655,7.923,17.655,17.655
		V423.724z"/>
</g>
<path style="fill:#D2DCF0;" d="M406.069,105.931h79.448L379.586,0v79.448C379.586,94.074,391.443,105.931,406.069,105.931z"/>
<path style="fill:#00CDCD;" d="M291.31,229.517V105.931c0-9.75-7.904-17.655-17.655-17.655H114.759H44.138
	c-9.751,0-17.655,7.905-17.655,17.655v123.586c0,9.75,7.904,17.655,17.655,17.655h70.621h158.897
	C283.406,247.172,291.31,239.267,291.31,229.517z M141.241,176.552c0,19.474-15.84,35.31-35.31,35.31h-8.828
	c-19.47,0-35.31-15.837-35.31-35.31v-17.655c0-19.474,15.84-35.31,35.31-35.31h8.828c10.035,0,19.629,4.294,26.319,11.767
	c3.25,3.638,2.935,9.216-0.698,12.466c-3.642,3.258-9.216,2.94-12.466-0.69c-3.34-3.742-8.138-5.888-13.155-5.888h-8.828
	c-9.737,0-17.655,7.923-17.655,17.655v17.655c0,9.732,7.918,17.655,17.655,17.655h8.828c9.737,0,17.655-7.923,17.655-17.655h-17.655
	c-4.875,0-8.828-3.948-8.828-8.828s3.953-8.828,8.828-8.828h26.483c4.875,0,8.828,3.948,8.828,8.828V176.552z M171.586,203.034
	c0,4.879-3.953,8.828-8.828,8.828s-8.828-3.948-8.828-8.828v-70.621c0-4.879,3.953-8.828,8.828-8.828s8.828,3.948,8.828,8.828
	V203.034z M247.172,141.241h-44.138v17.655h26.483c4.875,0,8.828,3.948,8.828,8.828s-3.953,8.828-8.828,8.828h-26.483v26.483
	c0,4.879-3.953,8.828-8.828,8.828s-8.828-3.948-8.828-8.828v-70.621c0-4.879,3.953-8.828,8.828-8.828h52.966
	c4.875,0,8.828,3.948,8.828,8.828C256,137.293,252.047,141.241,247.172,141.241z"/>
<g>
	<path style="fill:#FFFFFF;" d="M162.759,123.586c-4.875,0-8.828,3.948-8.828,8.828v70.621c0,4.879,3.953,8.828,8.828,8.828
		s8.828-3.948,8.828-8.828v-70.621C171.586,127.534,167.634,123.586,162.759,123.586z"/>
	<path style="fill:#FFFFFF;" d="M132.414,158.897h-26.483c-4.875,0-8.828,3.948-8.828,8.828s3.953,8.828,8.828,8.828h17.655
		c0,9.732-7.918,17.655-17.655,17.655h-8.828c-9.737,0-17.655-7.923-17.655-17.655v-17.655c0-9.732,7.918-17.655,17.655-17.655
		h8.828c5.017,0,9.815,2.146,13.155,5.888c3.25,3.629,8.823,3.948,12.466,0.69c3.634-3.25,3.948-8.828,0.698-12.466
		c-6.69-7.474-16.285-11.767-26.319-11.767h-8.828c-19.47,0-35.31,15.837-35.31,35.31v17.655c0,19.474,15.84,35.31,35.31,35.31
		h8.828c19.47,0,35.31-15.837,35.31-35.31v-8.828C141.241,162.845,137.289,158.897,132.414,158.897z"/>
	<path style="fill:#FFFFFF;" d="M247.172,123.586h-52.966c-4.875,0-8.828,3.948-8.828,8.828v70.621c0,4.879,3.953,8.828,8.828,8.828
		s8.828-3.948,8.828-8.828v-26.483h26.483c4.875,0,8.828-3.948,8.828-8.828s-3.953-8.828-8.828-8.828h-26.483v-17.655h44.138
		c4.875,0,8.828-3.948,8.828-8.828C256,127.534,252.047,123.586,247.172,123.586z"/>
</g>
<path style="fill:#00CDCD;" d="M379.586,308.966H220.69c-9.737,0-17.655,7.923-17.655,17.655v97.103
	c0,9.732,7.918,17.655,17.655,17.655h158.897c9.737,0,17.655-7.923,17.655-17.655v-97.103
	C397.241,316.888,389.323,308.966,379.586,308.966z M300.138,344.276c0,4.871-3.961,8.828-8.828,8.828s-8.828-3.957-8.828-8.828
	c0-4.871,3.961-8.828,8.828-8.828S300.138,339.405,300.138,344.276z M220.69,326.621h50.902c-4.203,4.689-6.764,10.877-6.764,17.655
	c0,14.603,11.88,26.483,26.483,26.483c14.603,0,26.483-11.88,26.483-26.483c0-6.778-2.562-12.967-6.764-17.655h68.557l0.006,44.903
	l-24.661-24.661c-3.448-3.448-9.035-3.448-12.483,0l-51.137,51.138l-15.828-15.828c-3.448-3.448-9.035-3.448-12.483,0
	l-41.551,41.551h-0.758V326.621z M292.068,423.724h-45.655l22.828-22.827L292.068,423.724z M317.034,423.724l-13.241-13.241
	l44.897-44.896l30.905,30.905l0.004,27.232H317.034z"/>
<g>
</g>
<g>
</g>
<g>
</g>
<g>
</g>
<g>
</g>
<g>
</g>
<g>
</g>
<g>
</g>
<g>
</g>
<g>
</g>
<g>
</g>
<g>
</g>
<g>
</g>
<g>
</g>
<g>
</g>
</svg>
