<?xml version="1.0" encoding="iso-8859-1"?>
<!-- Generator: Adobe Illustrator 19.0.0, SVG Export Plug-In . SVG Version: 6.00 Build 0)  -->
<svg version="1.1" id="Layer_1" xmlns="http://www.w3.org/2000/svg" xmlns:xlink="http://www.w3.org/1999/xlink" x="0px" y="0px"
	 viewBox="0 0 512 512" style="enable-background:new 0 0 512 512;" xml:space="preserve">
<g>
	<path style="fill:#E4EAF6;" d="M406.069,105.931c-14.626,0-26.483-11.857-26.483-26.483V0H141.241
		c-14.626,0-26.483,11.857-26.483,26.483v61.793h220.69c9.751,0,17.655,7.905,17.655,17.655v123.586
		c0,9.75-7.904,17.655-17.655,17.655h-220.69v238.345c0,14.626,11.857,26.483,26.483,26.483h317.793
		c14.626,0,26.483-11.857,26.483-26.483V105.931H406.069z M388.414,423.724c0,14.603-11.88,26.483-26.483,26.483H238.345
		c-14.603,0-26.483-11.88-26.483-26.483v-70.621c0-14.603,11.88-26.483,26.483-26.483h21.026l3.948-7.896
		c3.009-6.017,9.06-9.759,15.794-9.759h42.051c6.733,0,12.785,3.742,15.794,9.759l3.948,7.896h21.025
		c14.603,0,26.483,11.88,26.483,26.483V423.724z"/>
	<path style="fill:#E4EAF6;" d="M361.931,344.276h-26.483c-3.345,0-6.401-1.888-7.896-4.879l-6.388-12.776h-42.051l-6.388,12.776
		c-1.496,2.991-4.553,4.879-7.897,4.879h-26.483c-4.866,0-8.828,3.957-8.828,8.828v70.621c0,4.871,3.961,8.828,8.828,8.828h22.356
		c-8.405-9.378-13.528-21.754-13.528-35.31c0-29.207,23.758-52.966,52.966-52.966c29.207,0,52.966,23.758,52.966,52.966
		c0,13.556-5.123,25.932-13.528,35.31h22.356c4.866,0,8.828-3.957,8.828-8.828v-70.621
		C370.759,348.233,366.797,344.276,361.931,344.276z"/>
	<path style="fill:#E4EAF6;" d="M335.448,397.241c0-19.474-15.84-35.31-35.31-35.31s-35.31,15.837-35.31,35.31
		c0,19.474,15.84,35.31,35.31,35.31S335.448,416.715,335.448,397.241z M300.138,414.897c-9.737,0-17.655-7.923-17.655-17.655
		s7.918-17.655,17.655-17.655c9.737,0,17.655,7.923,17.655,17.655S309.875,414.897,300.138,414.897z"/>
</g>
<path style="fill:#D2DCF0;" d="M406.069,105.931h79.448L379.586,0v79.448C379.586,94.074,391.443,105.931,406.069,105.931z"/>
<g>
	<path style="fill:#A0D778;" d="M198.621,141.241h-30.897v26.483h30.897c7.302,0,13.241-5.94,13.241-13.241
		S205.922,141.241,198.621,141.241z"/>
	<path style="fill:#A0D778;" d="M353.103,229.517V105.931c0-9.75-7.904-17.655-17.655-17.655h-220.69H44.138
		c-9.751,0-17.655,7.905-17.655,17.655v123.586c0,9.75,7.904,17.655,17.655,17.655h70.621h220.69
		C345.199,247.172,353.103,239.267,353.103,229.517z M132.414,176.552c0,19.474-15.84,35.31-35.31,35.31s-35.31-15.837-35.31-35.31
		c0-4.879,3.953-8.828,8.828-8.828s8.828,3.948,8.828,8.828c0,9.732,7.918,17.655,17.655,17.655s17.655-7.923,17.655-17.655v-44.138
		c0-4.879,3.953-8.828,8.828-8.828c4.875,0,8.828,3.948,8.828,8.828V176.552z M198.621,185.379h-30.897v17.655
		c0,4.879-3.953,8.828-8.828,8.828c-4.875,0-8.828-3.948-8.828-8.828v-70.621c0-4.879,3.953-8.828,8.828-8.828h39.724
		c17.035,0,30.897,13.863,30.897,30.897S215.656,185.379,198.621,185.379z M282.483,211.862h-8.828
		c-19.47,0-35.31-15.837-35.31-35.31v-17.655c0-19.474,15.84-35.31,35.31-35.31h8.828c10.035,0,19.629,4.294,26.319,11.767
		c3.25,3.638,2.935,9.216-0.698,12.466c-3.638,3.258-9.212,2.94-12.466-0.69c-3.34-3.742-8.138-5.888-13.155-5.888h-8.828
		c-9.737,0-17.655,7.923-17.655,17.655v17.655c0,9.732,7.918,17.655,17.655,17.655h8.828c6.521,0,12.228-3.552,15.285-8.828h-15.285
		c-4.875,0-8.828-3.948-8.828-8.828c0-4.879,3.953-8.828,8.828-8.828h26.483c4.875,0,8.828,3.948,8.828,8.828
		C317.793,196.025,301.953,211.862,282.483,211.862z"/>
</g>
<g>
	<path style="fill:#FFFFFF;" d="M198.621,123.586h-39.724c-4.875,0-8.828,3.948-8.828,8.828v70.621c0,4.879,3.953,8.828,8.828,8.828
		c4.875,0,8.828-3.948,8.828-8.828v-17.655h30.897c17.035,0,30.897-13.863,30.897-30.897S215.656,123.586,198.621,123.586z
		 M198.621,167.724h-30.897v-26.483h30.897c7.302,0,13.241,5.94,13.241,13.241S205.922,167.724,198.621,167.724z"/>
	<path style="fill:#FFFFFF;" d="M123.586,123.586c-4.875,0-8.828,3.948-8.828,8.828v44.138c0,9.732-7.918,17.655-17.655,17.655
		s-17.655-7.923-17.655-17.655c0-4.879-3.953-8.828-8.828-8.828s-8.828,3.948-8.828,8.828c0,19.474,15.84,35.31,35.31,35.31
		s35.31-15.837,35.31-35.31v-44.138C132.414,127.534,128.461,123.586,123.586,123.586z"/>
	<path style="fill:#FFFFFF;" d="M308.966,167.724h-26.483c-4.875,0-8.828,3.948-8.828,8.828c0,4.879,3.953,8.828,8.828,8.828h15.285
		c-3.057,5.276-8.762,8.828-15.285,8.828h-8.828c-9.737,0-17.655-7.923-17.655-17.655v-17.655c0-9.732,7.918-17.655,17.655-17.655
		h8.828c5.017,0,9.815,2.146,13.155,5.888c3.254,3.629,8.828,3.948,12.466,0.69c3.634-3.25,3.948-8.828,0.698-12.466
		c-6.69-7.474-16.285-11.767-26.319-11.767h-8.828c-19.47,0-35.31,15.837-35.31,35.31v17.655c0,19.474,15.84,35.31,35.31,35.31
		h8.828c19.47,0,35.31-15.837,35.31-35.31C317.793,171.672,313.841,167.724,308.966,167.724z"/>
</g>
<g>
	<path style="fill:#A0D778;" d="M361.931,326.621h-21.026l-3.948-7.896c-3.009-6.017-9.06-9.759-15.794-9.759h-42.051
		c-6.733,0-12.785,3.742-15.794,9.759l-3.947,7.896h-21.026c-14.603,0-26.483,11.88-26.483,26.483v70.621
		c0,14.603,11.88,26.483,26.483,26.483h123.586c14.603,0,26.483-11.88,26.483-26.483v-70.621
		C388.414,338.5,376.534,326.621,361.931,326.621z M264.828,397.241c0-19.474,15.84-35.31,35.31-35.31s35.31,15.837,35.31,35.31
		c0,19.474-15.84,35.31-35.31,35.31S264.828,416.715,264.828,397.241z M370.759,423.724c0,4.871-3.961,8.828-8.828,8.828h-22.356
		c8.405-9.378,13.528-21.754,13.528-35.31c0-29.207-23.758-52.966-52.966-52.966c-29.207,0-52.966,23.758-52.966,52.966
		c0,13.556,5.123,25.932,13.528,35.31h-22.356c-4.866,0-8.828-3.957-8.828-8.828v-70.621c0-4.871,3.961-8.828,8.828-8.828h26.483
		c3.345,0,6.401-1.888,7.896-4.879l6.388-12.776h42.051l6.388,12.776c1.495,2.991,4.552,4.879,7.896,4.879h26.483
		c4.866,0,8.828,3.957,8.828,8.828v70.621H370.759z"/>
	<path style="fill:#A0D778;" d="M300.138,379.586c-9.737,0-17.655,7.923-17.655,17.655s7.918,17.655,17.655,17.655
		c9.737,0,17.655-7.923,17.655-17.655S309.875,379.586,300.138,379.586z"/>
</g>
<g>
</g>
<g>
</g>
<g>
</g>
<g>
</g>
<g>
</g>
<g>
</g>
<g>
</g>
<g>
</g>
<g>
</g>
<g>
</g>
<g>
</g>
<g>
</g>
<g>
</g>
<g>
</g>
<g>
</g>
</svg>
