<?xml version="1.0" encoding="UTF-8" standalone="no"?>
<svg
   xmlns:dc="http://purl.org/dc/elements/1.1/"
   xmlns:cc="http://creativecommons.org/ns#"
   xmlns:rdf="http://www.w3.org/1999/02/22-rdf-syntax-ns#"
   xmlns:svg="http://www.w3.org/2000/svg"
   xmlns="http://www.w3.org/2000/svg"
   xmlns:sodipodi="http://sodipodi.sourceforge.net/DTD/sodipodi-0.dtd"
   xmlns:inkscape="http://www.inkscape.org/namespaces/inkscape"
   width="200"
   height="200"
   viewBox="0 0 200 200"
   id="svg2"
   version="1.1"
   inkscape:version="0.91 r13725"
   sodipodi:docname="php.svg">
  <metadata
     id="metadata10">
    <rdf:RDF>
      <cc:Work
         rdf:about="">
        <dc:format>image/svg+xml</dc:format>
        <dc:type
           rdf:resource="http://purl.org/dc/dcmitype/StillImage" />
        <dc:title></dc:title>
      </cc:Work>
    </rdf:RDF>
  </metadata>
  <defs
     id="defs8" />
  <sodipodi:namedview
     pagecolor="#ffffff"
     bordercolor="#666666"
     borderopacity="1"
     objecttolerance="10"
     gridtolerance="10"
     guidetolerance="10"
     inkscape:pageopacity="0"
     inkscape:pageshadow="2"
     inkscape:window-width="1920"
     inkscape:window-height="1018"
     id="namedview6"
     showgrid="false"
     inkscape:zoom="2.085965"
     inkscape:cx="36.107257"
     inkscape:cy="53.185691"
     inkscape:window-x="-8"
     inkscape:window-y="-8"
     inkscape:window-maximized="1"
     inkscape:current-layer="svg2"
     showborder="true"
     fit-margin-top="0"
     fit-margin-left="0"
     fit-margin-right="0"
     fit-margin-bottom="0" />
  <g
     id="g7212"
     transform="matrix(4.1836724,0,0,4.1836724,13.502079,-636.77594)">
    <path
       style="opacity:0.8;fill:#e9e9e0"
       d="m 28.34461,152.20505 -24.774333,0 c -0.689741,0 -1.248875,0.55915 -1.248875,1.6441 l 0,45.30608 c 0,0.29453 0.559134,0.85365 1.248875,0.85365 l 34.208759,0 c 0.689743,0 1.248876,-0.55912 1.248876,-0.85365 l 0,-35.87164 c 0,-0.59412 -0.07938,-0.78534 -0.219377,-0.9262 l -9.932961,-9.93294 c -0.140857,-0.14007 -0.332065,-0.21943 -0.530964,-0.21943 z"
       id="path5"
       inkscape:connector-curvature="0" />
    <path
       style="opacity:0.8;fill:#d9d7ca"
       d="m 28.78424,152.33395 0,10.11477 10.114776,0 z"
       id="polygon7"
       inkscape:connector-curvature="0" />
    <path
       id="rect7102"
       d="m 2.3227764,185.23108 0,13.92472 c 0,0.29451 0.5577759,0.85411 1.2475169,0.85411 l 34.2074807,0 c 0.689741,0 1.25106,-0.5596 1.25106,-0.85411 l 0,-13.92472 -36.7060576,0 z"
       style="opacity:0.8;fill:#5f8dd3;fill-opacity:1;stroke:none;stroke-width:1;stroke-linecap:butt;stroke-linejoin:miter;stroke-miterlimit:4;stroke-dasharray:none;stroke-opacity:1"
       inkscape:connector-curvature="0" />
    <path
       sodipodi:nodetypes="acaacccssccccscccccccccccaca"
       inkscape:connector-curvature="0"
       id="path7146"
       d="m 17.115969,162.64711 c -1.414838,-0.097 -2.740998,0.82514 -4.029423,1.3654 -1.246466,-0.38287 -2.610998,-0.83149 -3.896249,-0.56605 -0.6638262,0.1372 -1.3482921,0.50685 -1.731887,1.06569 -2.3705583,3.45366 -2.2024262,8.14085 -2.2979188,12.35497 -0.00672,1.94975 0.8083035,4.45362 1.5319432,4.29613 0.8057727,-0.1917 0.4345753,-2.39436 0.6369061,-3.62571 0.016445,-1.23992 0.2871812,-2.35313 0.8367175,-3.326 0.5924318,-1.04884 1.8017567,-1.29265 2.668363,-0.3622 1.063784,1.14211 0.930986,2.73717 0.909117,4.22359 -0.09507,0.74473 -0.175996,1.48943 -0.05306,2.23416 0.378379,0.7365 0.957566,0.91075 1.554209,1.03612 0.897228,0.83307 1.849271,1.4688 2.967186,1.50738 0.780873,-0.11449 1.972163,-0.41571 2.401883,-1.20095 0.513167,-0.93774 0.413983,-2.31199 0.353088,-3.57946 1.228095,0.8171 2.991984,0.56261 4.639201,0.54148 -0.03437,2.81903 0.896755,2.7414 1.766041,2.84937 2.439671,1.38086 3.938891,0.48717 4.945052,-0.96552 0.121807,-1.66409 -0.0029,-3.32817 -0.235248,-4.99226 1.509706,-2.08011 2.763573,-4.35581 0.99452,-7.74745 1.359098,-0.16994 2.811409,-0.11353 4.222611,-0.17974 0.608735,0.78777 1.460776,0.86498 2.031384,0.4828 0.496086,-0.58463 0.217943,-2.01932 -0.566203,-2.38126 -0.632688,-0.2046 -1.265371,0.29384 -1.898051,0.73297 l -4.762373,-0.39986 c -0.887916,-1.05465 -2.42196,-1.88748 -3.862875,-2.29791 -2.327767,-0.66305 -4.4942,-0.71733 -7.259858,-0.13314 -0.386845,-0.61792 -1.171612,-0.88496 -1.865045,-0.9325 z"
       style="opacity:0.8;fill:#5f8dd3;fill-opacity:1;stroke:none;stroke-width:1;stroke-linecap:butt;stroke-linejoin:miter;stroke-miterlimit:4;stroke-dasharray:none;stroke-opacity:1" />
    <g
       id="text7162"
       style="font-style:normal;font-weight:normal;font-size:13.0779047px;line-height:125%;font-family:sans-serif;letter-spacing:0px;word-spacing:0px;opacity:1;fill:#ffffff;fill-opacity:1;stroke:none;stroke-width:1px;stroke-linecap:butt;stroke-linejoin:miter;stroke-opacity:1">
      <path
         id="path7206"
         style="font-style:normal;font-variant:normal;font-weight:normal;font-stretch:normal;font-family:'Baloo Bhai';-inkscape-font-specification:'Baloo Bhai';fill:#ffffff"
         d="m 12.358158,189.2865 q 0.784674,0 1.451647,0.20925 0.680051,0.19617 1.163934,0.61466 0.483882,0.41849 0.758518,1.05931 0.274636,0.62774 0.274636,1.50396 0,0.83698 -0.235402,1.46472 -0.235402,0.62774 -0.666973,1.05931 -0.431571,0.4185 -1.046233,0.62774 -0.601583,0.20925 -1.347024,0.20925 -0.56235,0 -1.046232,-0.17001 l 0,2.17093 q -0.130779,0.0392 -0.418493,0.0785 -0.287714,0.0523 -0.588506,0.0523 -0.287714,0 -0.523116,-0.0392 -0.2223244,-0.0392 -0.3792592,-0.15693 -0.1569349,-0.1177 -0.2354023,-0.32695 -0.078467,-0.19617 -0.078467,-0.52311 l 0,-6.2774 q 0,-0.3531 0.1438569,-0.57543 0.1569349,-0.22232 0.4184926,-0.40541 0.405415,-0.26156 1.006999,-0.41849 0.601583,-0.15694 1.347024,-0.15694 z m 0.02616,4.99576 q 1.347024,0 1.347024,-1.60858 0,-0.83699 -0.340026,-1.2424 -0.326947,-0.40542 -0.954687,-0.40542 -0.24848,0 -0.444649,0.0654 -0.196168,0.0523 -0.340025,0.13078 l 0,2.87714 q 0.156935,0.0785 0.340025,0.13078 0.183091,0.0523 0.392338,0.0523 z"
         inkscape:connector-curvature="0" />
      <path
         id="path7208"
         style="font-style:normal;font-variant:normal;font-weight:normal;font-stretch:normal;font-family:'Baloo Bhai';-inkscape-font-specification:'Baloo Bhai';fill:#ffffff"
         d="m 23.382014,195.82545 q -0.130779,0.0392 -0.418493,0.0785 -0.274636,0.0392 -0.575428,0.0392 -0.287714,0 -0.523116,-0.0392 -0.222324,-0.0392 -0.379259,-0.15693 -0.156935,-0.1177 -0.24848,-0.31387 -0.07847,-0.20925 -0.07847,-0.5362 l 0,-2.90329 q 0,-0.5362 -0.274636,-0.74544 -0.261558,-0.22233 -0.653895,-0.22233 -0.261558,0 -0.49696,0.0654 -0.235403,0.0654 -0.37926,0.15694 l 0,4.57726 q -0.130779,0.0392 -0.418493,0.0785 -0.274636,0.0392 -0.575427,0.0392 -0.287714,0 -0.523117,-0.0392 -0.222324,-0.0392 -0.379259,-0.15693 -0.156935,-0.1177 -0.24848,-0.31387 -0.07847,-0.20925 -0.07847,-0.5362 l 0,-7.58518 q 0.143856,-0.0262 0.418492,-0.0654 0.287714,-0.0523 0.575428,-0.0523 0.287714,0 0.510039,0.0392 0.235402,0.0392 0.392337,0.15694 0.156935,0.1177 0.235402,0.32694 0.09154,0.19617 0.09154,0.52312 l 0,1.28163 q 0.170013,-0.0654 0.510039,-0.14385 0.353103,-0.0916 0.771596,-0.0916 1.294713,0 2.013997,0.6539 0.732363,0.64081 0.732363,1.92245 l 0,3.9626 z"
         inkscape:connector-curvature="0" />
      <path
         id="path7210"
         style="font-style:normal;font-variant:normal;font-weight:normal;font-stretch:normal;font-family:'Baloo Bhai';-inkscape-font-specification:'Baloo Bhai';fill:#ffffff"
         d="m 27.683827,189.2865 q 0.784674,0 1.451648,0.20925 0.680051,0.19617 1.163933,0.61466 0.483883,0.41849 0.758519,1.05931 0.274636,0.62774 0.274636,1.50396 0,0.83698 -0.235403,1.46472 -0.235402,0.62774 -0.666973,1.05931 -0.431571,0.4185 -1.046232,0.62774 -0.601584,0.20925 -1.347024,0.20925 -0.56235,0 -1.046233,-0.17001 l 0,2.17093 q -0.130779,0.0392 -0.418493,0.0785 -0.287714,0.0523 -0.588506,0.0523 -0.287713,0 -0.523116,-0.0392 -0.222324,-0.0392 -0.379259,-0.15693 -0.156935,-0.1177 -0.235402,-0.32695 -0.07847,-0.19617 -0.07847,-0.52311 l 0,-6.2774 q 0,-0.3531 0.143857,-0.57543 0.156935,-0.22232 0.418493,-0.40541 0.405415,-0.26156 1.006999,-0.41849 0.601584,-0.15694 1.347024,-0.15694 z m 0.02616,4.99576 q 1.347024,0 1.347024,-1.60858 0,-0.83699 -0.340025,-1.2424 -0.326948,-0.40542 -0.954687,-0.40542 -0.248481,0 -0.444649,0.0654 -0.196169,0.0523 -0.340026,0.13078 l 0,2.87714 q 0.156935,0.0785 0.340026,0.13078 0.18309,0.0523 0.392337,0.0523 z"
         inkscape:connector-curvature="0" />
    </g>
  </g>
</svg>
