<?xml version="1.0" encoding="iso-8859-1"?>
<!-- Generator: Adobe Illustrator 19.0.0, SVG Export Plug-In . SVG Version: 6.00 Build 0)  -->
<svg version="1.1" id="Layer_1" xmlns="http://www.w3.org/2000/svg" xmlns:xlink="http://www.w3.org/1999/xlink" x="0px" y="0px"
	 viewBox="0 0 512 512" style="enable-background:new 0 0 512 512;" xml:space="preserve">
<g>
	<path style="fill:#E4EAF6;" d="M282.483,344.276c0,4.871,3.961,8.828,8.828,8.828s8.828-3.957,8.828-8.828
		c0-4.871-3.961-8.828-8.828-8.828S282.483,339.405,282.483,344.276z"/>
	<polygon style="fill:#E4EAF6;" points="246.414,423.724 292.069,423.724 269.241,400.897 	"/>
	<path style="fill:#E4EAF6;" d="M263,382.173c3.448-3.448,9.035-3.448,12.483,0l15.827,15.828l51.138-51.138
		c3.448-3.448,9.035-3.448,12.483,0l24.661,24.661l-0.007-44.903h-68.557c4.203,4.689,6.764,10.877,6.764,17.655
		c0,14.603-11.88,26.483-26.483,26.483c-14.603,0-26.483-11.88-26.483-26.483c0-6.778,2.562-12.967,6.764-17.655H220.69v97.103
		h0.759L263,382.173z"/>
	<polygon style="fill:#E4EAF6;" points="348.69,365.587 303.794,410.483 317.035,423.724 379.599,423.724 379.595,396.492 	"/>
	<path style="fill:#E4EAF6;" d="M406.069,105.931c-14.626,0-26.483-11.857-26.483-26.483V0H141.241
		c-14.626,0-26.483,11.857-26.483,26.483v61.793h229.517c9.751,0,17.655,7.905,17.655,17.655v123.586
		c0,9.75-7.904,17.655-17.655,17.655H114.759v238.345c0,14.626,11.857,26.483,26.483,26.483h317.793
		c14.626,0,26.483-11.857,26.483-26.483V105.931H406.069z M397.241,423.724c0,9.732-7.918,17.655-17.655,17.655H220.69
		c-9.737,0-17.655-7.923-17.655-17.655v-97.103c0-9.732,7.918-17.655,17.655-17.655h158.897c9.737,0,17.655,7.923,17.655,17.655
		V423.724z"/>
</g>
<path style="fill:#D2DCF0;" d="M406.069,105.931h79.448L379.586,0v79.448C379.586,94.074,391.443,105.931,406.069,105.931z"/>
<g>
	<path style="fill:#8C8CDC;" d="M110.345,141.241H79.448v26.483h30.897c7.302,0,13.241-5.94,13.241-13.241
		S117.646,141.241,110.345,141.241z"/>
	<path style="fill:#8C8CDC;" d="M361.931,229.517V105.931c0-9.75-7.904-17.655-17.655-17.655H114.759H44.138
		c-9.751,0-17.655,7.905-17.655,17.655v123.586c0,9.75,7.904,17.655,17.655,17.655h70.621h229.517
		C354.027,247.172,361.931,239.267,361.931,229.517z M110.345,185.379H79.448v17.655c0,4.879-3.953,8.828-8.828,8.828
		s-8.828-3.948-8.828-8.828v-70.621c0-4.879,3.953-8.828,8.828-8.828h39.724c17.035,0,30.897,13.863,30.897,30.897
		S127.38,185.379,110.345,185.379z M233.931,194.207c0,9.732-7.918,17.655-17.655,17.655h-2.711c-7.319,0-13.961-4.604-16.53-11.457
		l-22.19-59.164h-2.707v61.793c0,4.879-3.953,8.828-8.828,8.828s-8.828-3.948-8.828-8.828v-61.793
		c0-9.732,7.918-17.655,17.655-17.655h2.711c7.319,0,13.961,4.604,16.53,11.457l22.19,59.164h2.707v-61.793
		c0-4.879,3.953-8.828,8.828-8.828c4.875,0,8.828,3.948,8.828,8.828V194.207z M326.621,176.552c0,19.474-15.84,35.31-35.31,35.31
		h-8.828c-19.47,0-35.31-15.837-35.31-35.31v-17.655c0-19.474,15.84-35.31,35.31-35.31h8.828c10.035,0,19.629,4.294,26.319,11.767
		c3.25,3.638,2.935,9.216-0.698,12.466c-3.638,3.258-9.212,2.94-12.466-0.69c-3.34-3.742-8.138-5.888-13.155-5.888h-8.828
		c-9.737,0-17.655,7.923-17.655,17.655v17.655c0,9.732,7.918,17.655,17.655,17.655h8.828c9.737,0,17.655-7.923,17.655-17.655H291.31
		c-4.875,0-8.828-3.948-8.828-8.828s3.953-8.828,8.828-8.828h26.483c4.875,0,8.828,3.948,8.828,8.828V176.552z"/>
</g>
<g>
	<path style="fill:#FFFFFF;" d="M110.345,123.586H70.621c-4.875,0-8.828,3.948-8.828,8.828v70.621c0,4.879,3.953,8.828,8.828,8.828
		s8.828-3.948,8.828-8.828v-17.655h30.897c17.035,0,30.897-13.863,30.897-30.897S127.38,123.586,110.345,123.586z M110.345,167.724
		H79.448v-26.483h30.897c7.302,0,13.241,5.94,13.241,13.241S117.646,167.724,110.345,167.724z"/>
	<path style="fill:#FFFFFF;" d="M317.793,158.897H291.31c-4.875,0-8.828,3.948-8.828,8.828s3.953,8.828,8.828,8.828h17.655
		c0,9.732-7.918,17.655-17.655,17.655h-8.828c-9.737,0-17.655-7.923-17.655-17.655v-17.655c0-9.732,7.918-17.655,17.655-17.655
		h8.828c5.017,0,9.815,2.146,13.155,5.888c3.254,3.629,8.828,3.948,12.466,0.69c3.634-3.25,3.948-8.828,0.698-12.466
		c-6.69-7.474-16.285-11.767-26.319-11.767h-8.828c-19.47,0-35.31,15.837-35.31,35.31v17.655c0,19.474,15.84,35.31,35.31,35.31
		h8.828c19.47,0,35.31-15.837,35.31-35.31v-8.828C326.621,162.845,322.668,158.897,317.793,158.897z"/>
	<path style="fill:#FFFFFF;" d="M225.103,123.586c-4.875,0-8.828,3.948-8.828,8.828v61.793h-2.707l-22.189-59.164
		c-2.569-6.854-9.212-11.457-16.53-11.457h-2.712c-9.737,0-17.655,7.923-17.655,17.655v61.793c0,4.879,3.953,8.828,8.828,8.828
		s8.828-3.948,8.828-8.828v-61.793h2.707l22.189,59.164c2.569,6.854,9.212,11.457,16.53,11.457h2.712
		c9.737,0,17.655-7.923,17.655-17.655v-61.793C233.931,127.534,229.978,123.586,225.103,123.586z"/>
</g>
<path style="fill:#8C8CDC;" d="M379.586,308.966H220.69c-9.737,0-17.655,7.923-17.655,17.655v97.103
	c0,9.732,7.918,17.655,17.655,17.655h158.897c9.737,0,17.655-7.923,17.655-17.655v-97.103
	C397.241,316.888,389.323,308.966,379.586,308.966z M300.138,344.276c0,4.871-3.961,8.828-8.828,8.828s-8.828-3.957-8.828-8.828
	c0-4.871,3.961-8.828,8.828-8.828S300.138,339.405,300.138,344.276z M220.69,326.621h50.902c-4.203,4.689-6.764,10.877-6.764,17.655
	c0,14.603,11.88,26.483,26.483,26.483c14.603,0,26.483-11.88,26.483-26.483c0-6.778-2.562-12.967-6.764-17.655h68.557l0.006,44.903
	l-24.661-24.661c-3.448-3.448-9.035-3.448-12.483,0l-51.137,51.138l-15.828-15.828c-3.448-3.448-9.035-3.448-12.483,0l-41.55,41.551
	h-0.759V326.621z M292.069,423.724h-45.655l22.827-22.827L292.069,423.724z M317.035,423.724l-13.241-13.241l44.896-44.896
	l30.905,30.905l0.004,27.232H317.035z"/>
<g>
</g>
<g>
</g>
<g>
</g>
<g>
</g>
<g>
</g>
<g>
</g>
<g>
</g>
<g>
</g>
<g>
</g>
<g>
</g>
<g>
</g>
<g>
</g>
<g>
</g>
<g>
</g>
<g>
</g>
</svg>
