<?xml version="1.0" encoding="iso-8859-1"?>
<!-- Generator: Adobe Illustrator 19.0.0, SVG Export Plug-In . SVG Version: 6.00 Build 0)  -->
<svg version="1.1" id="Layer_1" xmlns="http://www.w3.org/2000/svg" xmlns:xlink="http://www.w3.org/1999/xlink" x="0px" y="0px"
	 viewBox="0 0 512 512" style="enable-background:new 0 0 512 512;" xml:space="preserve">
<g>
	<path style="fill:#6EAADC;" d="M239.982,333.781c-2.987,12.417-2.987,29.938,9.263,50.038c11.583,19.01,28.85,30.735,44.523,37.91
		C268.557,395.036,249.749,359.444,239.982,333.781z"/>
	<path style="fill:#6EAADC;" d="M310.547,413.026c-1.81-9.116-2.78-18.175-3.693-26.716c-0.582-5.449-1.142-10.698-1.884-15.552
		h-10.297c-4.875,0-8.828-3.948-8.828-8.828v-15.112c-7.211-10.741-20.103-18.627-30.963-23.599
		C263.891,348.391,284.393,386.867,310.547,413.026z"/>
	<path style="fill:#6EAADC;" d="M406.069,105.931c-14.626,0-26.483-11.857-26.483-26.483V0H141.241
		c-14.626,0-26.483,11.857-26.483,26.483v61.793h220.69c9.751,0,17.655,7.905,17.655,17.655v123.586
		c0,9.75-7.904,17.655-17.655,17.655h-220.69v238.345c0,14.626,11.857,26.483,26.483,26.483h317.793
		c14.626,0,26.483-11.857,26.483-26.483V105.931H406.069z M365.293,459.034c-0.03,0-0.065,0-0.099,0
		c-12.151-0.136-23.742-3.392-34.657-8.863c-0.184,0.012-0.367,0.035-0.554,0.035c-0.289,0-0.577-0.018-0.866-0.043
		c-2.612-0.258-64.319-6.897-94.948-57.155c-30.289-49.707-0.642-87.939,0.633-89.543c0.017-0.021,0.036-0.036,0.053-0.057
		c0.252-0.311,0.523-0.607,0.815-0.883c0.014-0.013,0.03-0.025,0.044-0.039c0.284-0.264,0.587-0.505,0.906-0.732
		c0.031-0.022,0.061-0.045,0.092-0.066c0.648-0.446,1.363-0.806,2.132-1.069c0.052-0.019,0.104-0.036,0.157-0.053
		c0.382-0.122,0.77-0.23,1.176-0.301c0.361-0.061,0.721-0.092,1.077-0.109c0.127-0.007,0.254-0.006,0.381-0.007
		c0.259-0.001,0.515,0.009,0.77,0.03c0.127,0.01,0.252,0.015,0.378,0.031c0.35,0.044,0.692,0.11,1.03,0.193
		c0.045,0.011,0.09,0.013,0.135,0.025c1.698,0.439,41.784,11.233,58.332,39.371c0.798,1.354,1.219,2.897,1.219,4.474v8.828h8.828
		c4.147,0,7.733,2.888,8.621,6.931c1.664,7.577,2.539,15.742,3.462,24.396c1.75,16.352,3.573,33.207,10.787,47.967
		c9.702,5.544,19.838,8.866,30.196,8.981c4.875,0.052,8.785,4.052,8.728,8.922C374.065,455.147,370.125,459.034,365.293,459.034z"/>
</g>
<g>
	<path style="fill:#4B8CC8;" d="M406.069,105.931h79.448L379.586,0v79.448C379.586,94.074,391.443,105.931,406.069,105.931z"/>
	<path style="fill:#4B8CC8;" d="M353.103,229.517V105.931c0-9.75-7.904-17.655-17.655-17.655h-220.69H44.138
		c-9.751,0-17.655,7.905-17.655,17.655v123.586c0,9.75,7.904,17.655,17.655,17.655h70.621h220.69
		C345.199,247.172,353.103,239.267,353.103,229.517z M110.345,185.379H79.448v17.655c0,4.879-3.953,8.828-8.828,8.828
		s-8.828-3.948-8.828-8.828v-70.621c0-4.879,3.953-8.828,8.828-8.828h39.724c17.035,0,30.897,13.863,30.897,30.897
		S127.38,185.379,110.345,185.379z M203.034,211.862h-44.138c-4.875,0-8.828-3.948-8.828-8.828s3.953-8.828,8.828-8.828h44.138
		c4.866,0,8.828-3.957,8.828-8.828c0-4.871-3.961-8.828-8.828-8.828h-26.483c-14.603,0-26.483-11.88-26.483-26.483
		s11.88-26.483,26.483-26.483h35.31c4.875,0,8.828,3.948,8.828,8.828c0,4.879-3.953,8.828-8.828,8.828h-35.31
		c-4.866,0-8.828,3.957-8.828,8.828s3.961,8.828,8.828,8.828h26.483c14.603,0,26.483,11.88,26.483,26.483
		S217.638,211.862,203.034,211.862z M273.655,211.862h-26.483c-4.875,0-8.828-3.948-8.828-8.828v-70.621
		c0-4.879,3.953-8.828,8.828-8.828h26.483c24.337,0,44.138,19.801,44.138,44.138S297.992,211.862,273.655,211.862z"/>
	<path style="fill:#4B8CC8;" d="M273.655,141.241H256v52.966h17.655c14.603,0,26.483-11.88,26.483-26.483
		S288.258,141.241,273.655,141.241z"/>
	<path style="fill:#4B8CC8;" d="M110.345,141.241H79.448v26.483h30.897c7.302,0,13.241-5.94,13.241-13.241
		S117.646,141.241,110.345,141.241z"/>
</g>
<g>
	<path style="fill:#FFFFFF;" d="M110.345,123.586H70.621c-4.875,0-8.828,3.948-8.828,8.828v70.621c0,4.879,3.953,8.828,8.828,8.828
		s8.828-3.948,8.828-8.828v-17.655h30.897c17.035,0,30.897-13.863,30.897-30.897S127.38,123.586,110.345,123.586z M110.345,167.724
		H79.448v-26.483h30.897c7.302,0,13.241,5.94,13.241,13.241S117.646,167.724,110.345,167.724z"/>
	<path style="fill:#FFFFFF;" d="M203.034,158.897h-26.483c-4.866,0-8.828-3.957-8.828-8.828s3.961-8.828,8.828-8.828h35.31
		c4.875,0,8.828-3.948,8.828-8.828c0-4.879-3.953-8.828-8.828-8.828h-35.31c-14.603,0-26.483,11.88-26.483,26.483
		s11.88,26.483,26.483,26.483h26.483c4.866,0,8.828,3.957,8.828,8.828c0,4.871-3.961,8.828-8.828,8.828h-44.138
		c-4.875,0-8.828,3.948-8.828,8.828s3.953,8.828,8.828,8.828h44.138c14.603,0,26.483-11.88,26.483-26.483
		S217.638,158.897,203.034,158.897z"/>
	<path style="fill:#FFFFFF;" d="M273.655,123.586h-26.483c-4.875,0-8.828,3.948-8.828,8.828v70.621c0,4.879,3.953,8.828,8.828,8.828
		h26.483c24.337,0,44.138-19.801,44.138-44.138S297.992,123.586,273.655,123.586z M273.655,194.207H256v-52.966h17.655
		c14.603,0,26.483,11.88,26.483,26.483S288.258,194.207,273.655,194.207z"/>
	<path style="fill:#FFFFFF;" d="M365.393,441.379c-10.358-0.115-20.494-3.437-30.196-8.981c-7.214-14.76-9.037-31.615-10.787-47.967
		c-0.922-8.655-1.798-16.819-3.462-24.396c-0.888-4.043-4.474-6.931-8.621-6.931h-8.828v-8.828c0-1.578-0.423-3.121-1.219-4.474
		c-16.547-28.138-56.633-38.931-58.332-39.371c-0.045-0.012-0.09-0.014-0.135-0.025c-0.338-0.084-0.681-0.15-1.03-0.193
		c-0.127-0.015-0.252-0.021-0.378-0.031c-0.255-0.021-0.512-0.031-0.77-0.03c-0.127,0-0.254,0-0.381,0.007
		c-0.356,0.017-0.716,0.047-1.077,0.109c-0.406,0.071-0.794,0.179-1.176,0.301c-0.053,0.017-0.104,0.034-0.157,0.053
		c-0.769,0.263-1.483,0.622-2.132,1.069c-0.031,0.021-0.061,0.044-0.092,0.066c-0.319,0.225-0.622,0.468-0.906,0.732
		c-0.014,0.013-0.03,0.025-0.044,0.039c-0.292,0.276-0.564,0.572-0.815,0.883c-0.017,0.021-0.036,0.036-0.053,0.057
		c-1.276,1.603-30.922,39.837-0.633,89.543c30.63,50.259,92.337,56.897,94.948,57.155c0.289,0.025,0.577,0.043,0.866,0.043
		c0.186,0,0.37-0.023,0.554-0.035c10.916,5.471,22.506,8.727,34.657,8.863c0.034,0,0.07,0,0.099,0c4.832,0,8.771-3.887,8.828-8.733
		C374.177,445.431,370.268,441.431,365.393,441.379z M285.845,346.819v15.112c0,4.879,3.953,8.828,8.828,8.828h10.297
		c0.742,4.853,1.302,10.103,1.884,15.552c0.915,8.542,1.884,17.6,3.693,26.716c-26.154-26.159-46.656-64.637-55.666-89.806
		C265.742,328.192,278.634,336.077,285.845,346.819z M249.246,383.819c-12.25-20.1-12.25-37.621-9.263-50.038
		c9.767,25.663,28.575,61.256,53.786,87.948C278.095,414.553,260.829,402.828,249.246,383.819z"/>
</g>
<g>
</g>
<g>
</g>
<g>
</g>
<g>
</g>
<g>
</g>
<g>
</g>
<g>
</g>
<g>
</g>
<g>
</g>
<g>
</g>
<g>
</g>
<g>
</g>
<g>
</g>
<g>
</g>
<g>
</g>
</svg>
