<?xml version="1.0" encoding="utf-8"?>
<!-- Generator: Adobe Illustrator 17.1.0, SVG Export Plug-In . SVG Version: 6.00 Build 0)  -->
<!DOCTYPE svg PUBLIC "-//W3C//DTD SVG 1.1//EN" "http://www.w3.org/Graphics/SVG/1.1/DTD/svg11.dtd">
<svg version="1.1" id="Layer_1" xmlns="http://www.w3.org/2000/svg" xmlns:xlink="http://www.w3.org/1999/xlink" x="0px" y="0px"
	 viewBox="0 0 72 72" enable-background="new 0 0 72 72" xml:space="preserve">
<path fill="#CD6799" d="M62,40c-2.5,0-4.7,0.6-6.5,1.5c-0.7-1.3-1.4-2.5-1.5-3.4c-0.1-1-0.3-1.6-0.1-2.8c0.2-1.2,0.9-2.9,0.9-3.1
	c0-0.1-0.2-0.8-1.6-0.8c-1.5,0-2.7,0.3-2.8,0.7c-0.1,0.4-0.4,1.3-0.6,2.2c-0.2,1.3-2.9,6-4.4,8.5c-0.5-1-0.9-1.8-1-2.5
	c-0.1-1-0.3-1.6-0.1-2.8c0.2-1.2,0.9-2.9,0.9-3.1c0-0.1-0.2-0.8-1.6-0.8c-1.5,0-2.7,0.3-2.8,0.7c-0.1,0.4-0.3,1.3-0.6,2.2
	c-0.3,0.9-3.8,8.7-4.7,10.7c-0.5,1-0.9,1.9-1.2,2.4l0,0c0,0,0,0-0.1,0.1c-0.2,0.5-0.4,0.8-0.4,0.8l0,0c-0.2,0.3-0.4,0.7-0.5,0.7
	c-0.1,0-0.2-0.9,0-2.2c0.5-2.7,1.8-6.9,1.8-7.1c0-0.1,0.2-0.8-0.8-1.2c-1-0.4-1.4,0.2-1.5,0.2c-0.1,0-0.2,0.2-0.2,0.2
	s1.1-4.8-2.2-4.8c-2.1,0-4.9,2.3-6.4,4.3c-0.9,0.5-2.8,1.5-4.8,2.6c-0.8,0.5-1.6,0.9-2.3,1.3c-0.1-0.1-0.1-0.1-0.2-0.2
	c-4-4.3-11.5-7.3-11.2-13.1c0.1-2.1,0.8-7.6,14.3-14.4c11.1-5.5,19.9-4,21.4-0.6c2.2,4.8-4.7,13.7-16.2,15c-4.4,0.5-6.7-1.2-7.2-1.8
	c-0.6-0.7-0.7-0.7-0.9-0.6c-0.4,0.2-0.1,0.8,0,1.1c0.3,0.9,1.7,2.5,4.1,3.3c2.1,0.7,7.2,1.1,13.4-1.3c6.9-2.7,12.4-10.1,10.8-16.4
	C43.5,9.2,33,7.2,23,10.7c-5.9,2.1-12.3,5.4-17,9.7c-5.5,5.1-6.4,9.6-6,11.5C1.3,38.5,10.5,42.8,14.1,46c-0.2,0.1-0.3,0.2-0.5,0.3
	c-1.8,0.9-8.8,4.6-10.6,8.4c-2,4.4,0.3,7.5,1.8,7.9c4.7,1.3,9.5-1,12.1-4.9s2.3-8.9,1.1-11.2c0,0,0-0.1-0.1-0.1
	c0.5-0.3,1-0.6,1.4-0.8c0.9-0.6,1.8-1.1,2.6-1.5c-0.5,1.2-0.8,2.7-0.9,4.8c-0.2,2.5,0.8,5.7,2.2,6.9c0.6,0.6,1.3,0.6,1.7,0.6
	c1.6,0,2.3-1.3,3-2.8c0.9-1.9,1.8-4,1.8-4s-1.1,5.9,1.8,5.9c1,0,2.1-1.4,2.6-2.1l0,0c0,0,0,0,0.1-0.1c0.1-0.2,0.2-0.3,0.2-0.3
	s0,0,0,0c0.4-0.7,1.4-2.4,2.8-5.2c1.8-3.6,3.6-8.1,3.6-8.1s0.2,1.1,0.7,2.9c0.3,1.1,1,2.2,1.5,3.4c-0.4,0.6-0.7,0.9-0.7,0.9l0,0
	c-0.3,0.5-0.7,0.9-1.1,1.4c-1.4,1.7-3.2,3.7-3.4,4.2c-0.3,0.7-0.2,1.1,0.3,1.6c0.4,0.3,1.1,0.3,1.8,0.3c1.3-0.1,2.2-0.4,2.6-0.6
	c0.7-0.2,1.5-0.6,2.3-1.2c1.4-1,2.3-2.5,2.2-4.5c0-1.1-0.4-2.2-0.8-3.2c0.1-0.2,0.2-0.4,0.4-0.6c2.2-3.3,4-6.8,4-6.8
	s0.2,1.1,0.7,2.9c0.3,0.9,0.8,1.9,1.3,2.9c-2.1,1.7-3.4,3.7-3.9,5c-0.8,2.4-0.2,3.5,1,3.7c0.6,0.1,1.4-0.1,1.9-0.4
	c0.7-0.2,1.6-0.7,2.4-1.3c1.4-1,2.8-2.5,2.7-4.4c0-0.9-0.3-1.8-0.6-2.6c1.8-0.7,4.1-1.1,7-0.8c6.3,0.7,7.5,4.7,7.3,6.3
	c-0.2,1.6-1.6,2.5-2,2.8c-0.5,0.3-0.6,0.4-0.6,0.6c0.1,0.3,0.3,0.3,0.6,0.2c0.5-0.1,3.3-1.3,3.4-4.3C72.2,44.1,68.5,39.9,62,40z
	 M13.6,56.3c-2.1,2.3-5,3.1-6.2,2.4c-1.4-0.8-0.8-4.1,1.7-6.5c1.6-1.5,3.5-2.8,4.9-3.6c0.3-0.2,0.8-0.5,1.3-0.8
	c0.1-0.1,0.1-0.1,0.1-0.1l0,0c0.1-0.1,0.2-0.1,0.3-0.2C16.7,50.8,15.8,53.9,13.6,56.3z M28.8,45.9c-0.7,1.8-2.2,6.3-3.2,6
	c-0.8-0.2-1.3-3.6-0.2-7c0.6-1.7,1.8-3.7,2.5-4.5c1.1-1.3,2.4-1.7,2.7-1.2C31,40,29.2,44.9,28.8,45.9z M41.3,51.9
	c-0.3,0.2-0.6,0.3-0.7,0.2c-0.1-0.1,0.1-0.3,0.1-0.3s1.6-1.7,2.2-2.4c0.3-0.5,0.8-1,1.2-1.6c0,0.1,0,0.1,0,0.2
	C44.1,50,42.1,51.4,41.3,51.9z M50.9,49.7c-0.2-0.2-0.2-0.7,0.6-2.3c0.3-0.7,1-1.7,2.2-2.8c0.1,0.4,0.2,0.8,0.2,1.2
	C53.8,48.4,52,49.3,50.9,49.7z"/>
</svg>
