<?xml version="1.0" encoding="iso-8859-1"?>
<!-- Generator: Adobe Illustrator 19.0.0, SVG Export Plug-In . SVG Version: 6.00 Build 0)  -->
<svg version="1.1" id="Layer_1" xmlns="http://www.w3.org/2000/svg" xmlns:xlink="http://www.w3.org/1999/xlink" x="0px" y="0px"
	 viewBox="0 0 512 512" style="enable-background:new 0 0 512 512;" xml:space="preserve">
<g>
	<polygon style="fill:#464655;" points="367.908,344.276 396.53,344.276 375.345,317.793 357.315,317.793 	"/>
	<polygon style="fill:#464655;" points="348.892,344.276 338.298,317.793 314.943,317.793 304.35,344.276 	"/>
	<polygon style="fill:#464655;" points="350.231,411.113 394.94,361.931 368.116,361.931 	"/>
	<path style="fill:#464655;" d="M432.552,105.931c-14.626,0-26.483-11.857-26.483-26.483V0H167.724
		c-14.626,0-26.483,11.857-26.483,26.483v61.793h238.345c9.751,0,17.655,7.905,17.655,17.655v123.586
		c0,9.75-7.904,17.655-17.655,17.655H141.241v238.345c0,14.626,11.857,26.483,26.483,26.483h317.793
		C500.143,512,512,500.143,512,485.517V105.931H432.552z M423.645,354.138c-0.015,0.13-0.015,0.262-0.038,0.391
		c-0.061,0.37-0.151,0.735-0.259,1.098c-0.011,0.038-0.015,0.077-0.028,0.115c-0.126,0.404-0.281,0.801-0.468,1.19
		c-0.373,0.775-0.852,1.475-1.412,2.094c-0.006,0.006-0.009,0.012-0.014,0.018l-88.189,97.007c-0.01,0.011-0.02,0.022-0.031,0.033
		l-0.057,0.063c-0.039,0.043-0.083,0.078-0.121,0.12c-0.099,0.106-0.199,0.211-0.303,0.311c-0.025,0.024-0.047,0.051-0.073,0.075
		c-0.039,0.035-0.079,0.068-0.118,0.104c-0.063,0.057-0.13,0.109-0.195,0.164c-0.161,0.137-0.323,0.271-0.495,0.397
		c-0.049,0.035-0.098,0.071-0.147,0.106c-0.061,0.043-0.124,0.081-0.185,0.121c-0.131,0.087-0.264,0.174-0.401,0.255
		c-0.117,0.069-0.237,0.131-0.356,0.195c-0.076,0.04-0.148,0.085-0.225,0.122c-0.018,0.009-0.033,0.02-0.051,0.028
		c-0.045,0.022-0.095,0.039-0.141,0.061c-0.15,0.07-0.303,0.131-0.457,0.193c-0.082,0.032-0.158,0.071-0.241,0.102
		c-0.046,0.017-0.094,0.028-0.14,0.044c-0.072,0.024-0.141,0.052-0.213,0.075c-0.044,0.014-0.09,0.023-0.135,0.036
		c-0.012,0.003-0.024,0.006-0.038,0.01c-0.15,0.044-0.3,0.085-0.451,0.12c-0.12,0.029-0.241,0.056-0.362,0.081
		c-0.093,0.018-0.185,0.036-0.278,0.051c-0.06,0.01-0.118,0.015-0.178,0.023c-0.025,0.003-0.052,0.007-0.077,0.01
		c-0.099,0.013-0.198,0.029-0.298,0.039c-0.285,0.027-0.567,0.044-0.849,0.044c-0.281,0-0.564-0.018-0.847-0.045
		c-0.1-0.01-0.199-0.025-0.298-0.039c-0.025-0.003-0.052-0.007-0.077-0.01c-0.06-0.008-0.119-0.013-0.178-0.023
		c-0.093-0.015-0.185-0.033-0.278-0.051c-0.121-0.023-0.242-0.052-0.362-0.081c-0.151-0.036-0.301-0.076-0.451-0.12
		c-0.012-0.003-0.024-0.006-0.038-0.01c-0.044-0.013-0.09-0.022-0.135-0.036c-0.072-0.023-0.141-0.051-0.213-0.075
		c-0.046-0.017-0.094-0.028-0.14-0.044c-0.083-0.03-0.16-0.069-0.241-0.102c-0.153-0.062-0.307-0.122-0.457-0.193
		c-0.046-0.022-0.095-0.039-0.141-0.061c-0.018-0.008-0.033-0.019-0.051-0.028c-0.077-0.039-0.149-0.083-0.225-0.122
		c-0.12-0.064-0.239-0.126-0.356-0.195c-0.137-0.081-0.269-0.168-0.401-0.255c-0.062-0.041-0.125-0.079-0.185-0.121
		c-0.05-0.035-0.098-0.07-0.147-0.106c-0.172-0.126-0.334-0.26-0.495-0.397c-0.065-0.055-0.132-0.107-0.195-0.164
		c-0.039-0.035-0.081-0.068-0.118-0.104c-0.025-0.023-0.047-0.051-0.073-0.075c-0.105-0.1-0.204-0.206-0.303-0.311
		c-0.04-0.042-0.083-0.077-0.121-0.12l-0.057-0.063c-0.01-0.011-0.02-0.022-0.031-0.033l-88.189-97.007
		c-0.006-0.006-0.009-0.012-0.014-0.018c-0.561-0.619-1.039-1.32-1.412-2.094c-0.186-0.388-0.341-0.786-0.468-1.19
		c-0.012-0.038-0.017-0.077-0.028-0.115c-0.108-0.363-0.199-0.728-0.259-1.098c-0.021-0.129-0.022-0.26-0.038-0.391
		c-0.033-0.28-0.07-0.559-0.075-0.841c-0.004-0.183,0.017-0.366,0.024-0.549c0.009-0.23,0.01-0.459,0.036-0.687
		c0.023-0.191,0.07-0.378,0.105-0.568c0.041-0.221,0.074-0.443,0.132-0.66c0.046-0.174,0.115-0.344,0.172-0.515
		c0.077-0.231,0.15-0.461,0.246-0.686c0.013-0.032,0.021-0.066,0.035-0.097c0.06-0.135,0.139-0.254,0.205-0.385
		c0.109-0.217,0.215-0.435,0.343-0.644c0.103-0.169,0.221-0.324,0.333-0.484c0.102-0.143,0.189-0.296,0.299-0.435l35.31-44.138
		c1.673-2.094,4.211-3.31,6.892-3.31h34.978c0.161-0.006,0.322-0.003,0.483,0h35.114c0.105,0,0.211-0.003,0.316,0h35.038
		c2.681,0,5.219,1.216,6.892,3.31l35.31,44.138c0.111,0.139,0.198,0.291,0.299,0.435c0.114,0.16,0.231,0.316,0.333,0.484
		c0.128,0.21,0.234,0.427,0.343,0.644c0.065,0.13,0.146,0.25,0.205,0.385c0.014,0.032,0.021,0.066,0.035,0.097
		c0.096,0.225,0.169,0.456,0.246,0.686c0.057,0.172,0.126,0.342,0.172,0.515c0.057,0.217,0.09,0.439,0.132,0.66
		c0.035,0.189,0.083,0.377,0.105,0.568c0.028,0.228,0.028,0.458,0.036,0.687c0.008,0.183,0.029,0.366,0.024,0.549
		C423.714,353.579,423.678,353.858,423.645,354.138z"/>
	<polygon style="fill:#464655;" points="285.126,361.931 258.302,361.931 303.01,411.113 	"/>
	<polygon style="fill:#464655;" points="349.326,361.931 303.915,361.931 326.621,424.372 	"/>
	<polygon style="fill:#464655;" points="295.926,317.793 277.897,317.793 256.712,344.276 285.333,344.276 	"/>
</g>
<path style="fill:#707384;" d="M432.552,105.931H512L406.069,0v79.448C406.069,94.074,417.926,105.931,432.552,105.931z"/>
<path style="fill:#FFB45A;" d="M397.241,229.517V105.931c0-9.75-7.904-17.655-17.655-17.655H141.241H17.655
	C7.904,88.276,0,96.181,0,105.931v123.586c0,9.75,7.904,17.655,17.655,17.655h123.586h238.345
	C389.337,247.172,397.241,239.267,397.241,229.517z M48.552,158.897h8.828c12.168,0,22.069,9.897,22.069,22.069
	s-9.901,22.069-22.069,22.069H35.31c-4.875,0-8.828-3.948-8.828-8.828s3.953-8.828,8.828-8.828h22.069
	c2.435,0,4.414-1.983,4.414-4.414c0-2.431-1.978-4.414-4.414-4.414h-8.828c-12.168,0-22.069-9.897-22.069-22.069
	s9.901-22.069,22.069-22.069h22.069c4.875,0,8.828,3.948,8.828,8.828s-3.953,8.828-8.828,8.828H48.552
	c-2.435,0-4.414,1.983-4.414,4.414S46.116,158.897,48.552,158.897z M131.482,190.259c2.182,4.362,0.414,9.664-3.948,11.844
	c-1.267,0.629-2.616,0.931-3.939,0.931c-3.242,0-6.358-1.784-7.905-4.879l-9.759-19.517v15.569c0,4.879-3.953,8.828-8.828,8.828
	c-4.875,0-8.828-3.948-8.828-8.828v-52.966c0-4.879,3.953-8.828,8.828-8.828c4.875,0,8.828,3.948,8.828,8.828v5.173L117.345,135
	c3.448-3.448,9.035-3.448,12.483,0c3.448,3.448,3.448,9.035,0,12.483l-13.155,13.155L131.482,190.259z M176.552,158.897
	c4.875,0,8.828,3.948,8.828,8.828s-3.953,8.828-8.828,8.828h-17.655v8.828h26.483c4.875,0,8.828,3.948,8.828,8.828
	s-3.953,8.828-8.828,8.828h-35.31c-4.875,0-8.828-3.948-8.828-8.828v-52.966c0-4.879,3.953-8.828,8.828-8.828h35.31
	c4.875,0,8.828,3.948,8.828,8.828s-3.953,8.828-8.828,8.828h-26.483v8.828H176.552z M247.172,150.069h-8.828v44.138
	c0,4.879-3.953,8.828-8.828,8.828s-8.828-3.948-8.828-8.828v-44.138h-8.828c-4.875,0-8.828-3.948-8.828-8.828
	s3.953-8.828,8.828-8.828h35.31c4.875,0,8.828,3.948,8.828,8.828S252.047,150.069,247.172,150.069z M304.556,199.491
	c-4.013,2.319-8.595,3.543-13.246,3.543c-14.603,0-26.483-11.88-26.483-26.483v-17.655c0-14.603,11.88-26.483,26.483-26.483
	c4.617,0,9.172,1.207,13.172,3.5c4.233,2.422,5.698,7.819,3.276,12.052c-2.422,4.224-7.823,5.698-12.043,3.276
	c-1.357-0.776-2.84-1.173-4.405-1.173c-4.866,0-8.828,3.957-8.828,8.828v17.655c0,4.871,3.961,8.828,8.828,8.828
	c1.551,0,3.078-0.405,4.409-1.181c4.22-2.44,9.625-1,12.061,3.233C310.22,191.647,308.776,197.043,304.556,199.491z
	 M370.759,194.207c0,4.879-3.953,8.828-8.828,8.828s-8.828-3.948-8.828-8.828v-17.655h-17.655v17.655
	c0,4.879-3.953,8.828-8.828,8.828s-8.828-3.948-8.828-8.828v-52.966c0-4.879,3.953-8.828,8.828-8.828s8.828,3.948,8.828,8.828
	v17.655h17.655v-17.655c0-4.879,3.953-8.828,8.828-8.828s8.828,3.948,8.828,8.828V194.207z"/>
<g>
	<path style="fill:#FFFFFF;" d="M48.552,150.069h22.069c4.875,0,8.828-3.948,8.828-8.828s-3.953-8.828-8.828-8.828H48.552
		c-12.168,0-22.069,9.897-22.069,22.069s9.901,22.069,22.069,22.069h8.828c2.435,0,4.414,1.983,4.414,4.414
		c0,2.431-1.978,4.414-4.414,4.414H35.31c-4.875,0-8.828,3.948-8.828,8.828s3.953,8.828,8.828,8.828h22.069
		c12.168,0,22.069-9.897,22.069-22.069s-9.901-22.069-22.069-22.069h-8.828c-2.435,0-4.414-1.983-4.414-4.414
		S46.116,150.069,48.552,150.069z"/>
	<path style="fill:#FFFFFF;" d="M129.827,135c-3.448-3.448-9.035-3.448-12.483,0l-11.413,11.414v-5.173
		c0-4.879-3.953-8.828-8.828-8.828c-4.875,0-8.828,3.948-8.828,8.828v52.966c0,4.879,3.953,8.828,8.828,8.828
		c4.875,0,8.828-3.948,8.828-8.828v-15.569l9.759,19.518c1.547,3.095,4.664,4.879,7.905,4.879c1.323,0,2.673-0.301,3.939-0.931
		c4.362-2.182,6.13-7.482,3.948-11.844l-14.81-29.621l13.155-13.155C133.276,144.034,133.276,138.449,129.827,135z"/>
	<path style="fill:#FFFFFF;" d="M185.379,150.069c4.875,0,8.828-3.948,8.828-8.828s-3.953-8.828-8.828-8.828h-35.31
		c-4.875,0-8.828,3.948-8.828,8.828v52.966c0,4.879,3.953,8.828,8.828,8.828h35.31c4.875,0,8.828-3.948,8.828-8.828
		s-3.953-8.828-8.828-8.828h-26.483v-8.828h17.655c4.875,0,8.828-3.948,8.828-8.828s-3.953-8.828-8.828-8.828h-17.655v-8.828
		H185.379z"/>
	<path style="fill:#FFFFFF;" d="M247.172,132.414h-35.31c-4.875,0-8.828,3.948-8.828,8.828s3.953,8.828,8.828,8.828h8.828v44.138
		c0,4.879,3.953,8.828,8.828,8.828s8.828-3.948,8.828-8.828v-44.138h8.828c4.875,0,8.828-3.948,8.828-8.828
		S252.047,132.414,247.172,132.414z"/>
	<path style="fill:#FFFFFF;" d="M295.72,184.199c-1.332,0.776-2.858,1.181-4.409,1.181c-4.866,0-8.828-3.957-8.828-8.828v-17.655
		c0-4.871,3.961-8.828,8.828-8.828c1.565,0,3.048,0.396,4.405,1.173c4.22,2.422,9.621,0.948,12.043-3.276
		c2.422-4.233,0.957-9.63-3.276-12.052c-4-2.293-8.555-3.5-13.172-3.5c-14.603,0-26.483,11.88-26.483,26.483v17.655
		c0,14.603,11.88,26.483,26.483,26.483c4.651,0,9.233-1.224,13.246-3.543c4.22-2.449,5.664-7.844,3.224-12.061
		C305.345,183.198,299.939,181.759,295.72,184.199z"/>
	<path style="fill:#FFFFFF;" d="M361.931,132.414c-4.875,0-8.828,3.948-8.828,8.828v17.655h-17.655v-17.655
		c0-4.879-3.953-8.828-8.828-8.828s-8.828,3.948-8.828,8.828v52.966c0,4.879,3.953,8.828,8.828,8.828s8.828-3.948,8.828-8.828
		v-17.655h17.655v17.655c0,4.879,3.953,8.828,8.828,8.828s8.828-3.948,8.828-8.828v-52.966
		C370.759,136.362,366.806,132.414,361.931,132.414z"/>
</g>
<path style="fill:#FFB45A;" d="M423.695,352.749c-0.009-0.23-0.01-0.459-0.036-0.687c-0.023-0.191-0.07-0.378-0.105-0.568
	c-0.041-0.221-0.074-0.442-0.132-0.66c-0.046-0.174-0.115-0.344-0.172-0.515c-0.077-0.231-0.15-0.461-0.246-0.686
	c-0.013-0.032-0.021-0.066-0.035-0.097c-0.06-0.135-0.139-0.254-0.205-0.385c-0.109-0.217-0.215-0.435-0.343-0.644
	c-0.103-0.169-0.221-0.324-0.333-0.484c-0.102-0.143-0.189-0.296-0.299-0.435l-35.31-44.138c-1.673-2.094-4.211-3.31-6.892-3.31
	h-35.04c-0.105-0.003-0.21,0-0.316,0h-35.114c-0.162-0.003-0.323-0.005-0.483,0h-34.977c-2.681,0-5.219,1.216-6.892,3.31
	l-35.31,44.138c-0.111,0.139-0.198,0.291-0.299,0.435c-0.114,0.16-0.231,0.316-0.333,0.484c-0.128,0.21-0.234,0.427-0.343,0.644
	c-0.065,0.13-0.146,0.25-0.205,0.385c-0.014,0.032-0.021,0.066-0.035,0.097c-0.096,0.225-0.169,0.456-0.246,0.686
	c-0.057,0.172-0.126,0.342-0.172,0.515c-0.057,0.217-0.09,0.439-0.132,0.66c-0.035,0.189-0.083,0.377-0.105,0.568
	c-0.028,0.228-0.028,0.458-0.036,0.687c-0.008,0.183-0.029,0.366-0.024,0.549c0.006,0.28,0.043,0.561,0.075,0.841
	c0.015,0.13,0.015,0.262,0.038,0.391c0.061,0.37,0.151,0.735,0.259,1.098c0.011,0.038,0.015,0.077,0.028,0.115
	c0.126,0.404,0.281,0.801,0.468,1.19c0.373,0.775,0.852,1.475,1.412,2.094c0.006,0.006,0.009,0.012,0.014,0.018l88.189,97.007
	c0.01,0.011,0.02,0.022,0.031,0.033l0.057,0.063c0.039,0.043,0.083,0.078,0.121,0.12c0.099,0.106,0.199,0.211,0.303,0.311
	c0.025,0.024,0.047,0.051,0.073,0.075c0.039,0.035,0.079,0.068,0.118,0.104c0.063,0.057,0.13,0.109,0.195,0.164
	c0.161,0.137,0.323,0.271,0.495,0.397c0.049,0.035,0.098,0.071,0.147,0.106c0.061,0.043,0.124,0.081,0.185,0.121
	c0.131,0.087,0.264,0.174,0.401,0.255c0.117,0.07,0.237,0.131,0.356,0.195c0.076,0.04,0.148,0.085,0.225,0.122
	c0.018,0.009,0.033,0.02,0.051,0.028c0.045,0.022,0.095,0.039,0.141,0.061c0.15,0.069,0.303,0.131,0.457,0.193
	c0.082,0.032,0.158,0.071,0.241,0.102c0.046,0.017,0.094,0.028,0.14,0.044c0.072,0.024,0.141,0.052,0.213,0.075
	c0.044,0.014,0.09,0.023,0.135,0.036c0.012,0.003,0.024,0.006,0.038,0.01c0.15,0.044,0.3,0.085,0.451,0.12
	c0.12,0.029,0.241,0.056,0.362,0.081c0.093,0.018,0.185,0.036,0.278,0.051c0.06,0.01,0.118,0.015,0.178,0.023
	c0.025,0.003,0.052,0.007,0.077,0.01c0.099,0.013,0.198,0.029,0.298,0.039c0.282,0.028,0.565,0.045,0.847,0.045
	s0.564-0.018,0.847-0.045c0.1-0.01,0.199-0.025,0.298-0.039c0.025-0.003,0.052-0.007,0.077-0.01c0.06-0.008,0.119-0.013,0.178-0.023
	c0.093-0.015,0.185-0.033,0.278-0.051c0.121-0.023,0.242-0.052,0.362-0.081c0.151-0.036,0.301-0.076,0.451-0.12
	c0.012-0.003,0.024-0.006,0.038-0.01c0.044-0.013,0.09-0.022,0.135-0.036c0.072-0.023,0.141-0.051,0.213-0.075
	c0.046-0.017,0.094-0.028,0.14-0.044c0.083-0.03,0.16-0.07,0.241-0.102c0.153-0.062,0.307-0.122,0.457-0.193
	c0.046-0.022,0.095-0.039,0.141-0.061c0.018-0.008,0.033-0.019,0.051-0.028c0.077-0.039,0.149-0.083,0.225-0.122
	c0.12-0.064,0.239-0.126,0.356-0.195c0.137-0.081,0.269-0.168,0.401-0.255c0.062-0.041,0.125-0.079,0.185-0.121
	c0.05-0.035,0.098-0.069,0.147-0.106c0.172-0.126,0.334-0.26,0.495-0.397c0.065-0.055,0.132-0.107,0.195-0.164
	c0.039-0.035,0.081-0.068,0.118-0.104c0.025-0.023,0.047-0.051,0.073-0.075c0.105-0.1,0.204-0.206,0.303-0.311
	c0.04-0.042,0.083-0.077,0.121-0.12l0.057-0.063c0.01-0.011,0.02-0.022,0.031-0.033l88.189-97.007
	c0.006-0.006,0.009-0.012,0.014-0.018c0.561-0.619,1.039-1.32,1.412-2.094c0.186-0.388,0.341-0.786,0.468-1.19
	c0.012-0.038,0.017-0.077,0.028-0.115c0.108-0.363,0.199-0.728,0.259-1.098c0.021-0.129,0.022-0.26,0.038-0.391
	c0.033-0.28,0.07-0.559,0.075-0.841C423.724,353.115,423.703,352.932,423.695,352.749z M396.53,344.276h-28.621l-10.593-26.483
	h18.029L396.53,344.276z M338.298,317.793l10.593,26.483H304.35l10.593-26.483H338.298z M349.326,361.931l-22.706,62.441
	l-22.706-62.441H349.326z M277.897,317.793h18.029l-10.593,26.483h-28.621L277.897,317.793z M285.126,361.931l17.885,49.182
	l-44.708-49.182H285.126z M350.231,411.113l17.885-49.182h26.824L350.231,411.113z"/>
<g>
</g>
<g>
</g>
<g>
</g>
<g>
</g>
<g>
</g>
<g>
</g>
<g>
</g>
<g>
</g>
<g>
</g>
<g>
</g>
<g>
</g>
<g>
</g>
<g>
</g>
<g>
</g>
<g>
</g>
</svg>
