<?xml version="1.0" encoding="UTF-8" standalone="no"?>
<svg
   xmlns:dc="http://purl.org/dc/elements/1.1/"
   xmlns:cc="http://creativecommons.org/ns#"
   xmlns:rdf="http://www.w3.org/1999/02/22-rdf-syntax-ns#"
   xmlns:svg="http://www.w3.org/2000/svg"
   xmlns="http://www.w3.org/2000/svg"
   xmlns:sodipodi="http://sodipodi.sourceforge.net/DTD/sodipodi-0.dtd"
   xmlns:inkscape="http://www.inkscape.org/namespaces/inkscape"
   width="300"
   height="300"
   id="svg2"
   version="1.1"
   inkscape:version="0.91 r13725"
   sodipodi:docname="sublime.svg">
  <metadata
     id="metadata17">
    <rdf:RDF>
      <cc:Work
         rdf:about="">
        <dc:format>image/svg+xml</dc:format>
        <dc:type
           rdf:resource="http://purl.org/dc/dcmitype/StillImage" />
      </cc:Work>
    </rdf:RDF>
  </metadata>
  <sodipodi:namedview
     pagecolor="#ffffff"
     bordercolor="#666666"
     borderopacity="1"
     objecttolerance="10"
     gridtolerance="10"
     guidetolerance="10"
     inkscape:pageopacity="0"
     inkscape:pageshadow="2"
     inkscape:window-width="1920"
     inkscape:window-height="1018"
     id="namedview15"
     showgrid="false"
     inkscape:zoom="1.1125147"
     inkscape:cx="326.96461"
     inkscape:cy="262.94771"
     inkscape:window-x="-8"
     inkscape:window-y="-8"
     inkscape:window-maximized="1"
     inkscape:current-layer="svg2" />
  <defs
     id="defs4">
    <clipPath
       id="a">
      <path
         d="M113.895 232.825l213.394 79.297 37.375-63.64 29.8-62.124-23.74-46.972-189.18-80.997-80.025 25.437 43.942 63.135 59.6 25.76 2.02 44.193-95.965-42.68z"
         id="path7" />
    </clipPath>
  </defs>
  <rect
     width="300"
     height="300"
     rx="20"
     ry="20"
     fill="#333"
     id="rect9"
     style="fill:#4d4d4d" />
  <rect
     width="300"
     height="300"
     x="-.505"
     y="-.02"
     rx="20"
     ry="20"
     clip-path="url(#a)"
     transform="translate(.505 .02)"
     opacity=".5"
     id="rect11" />
  <path
     d="M76.68 177.517l35.157-3.418c2.116 11.8 6.41 20.466 12.88 26 6.468 5.534 15.197 8.3 26.183 8.3 11.637 0 20.406-2.46 26.306-7.385 5.9-4.923 8.85-10.68 8.85-17.273 0-4.23-1.24-7.833-3.723-10.803-2.482-2.97-6.816-5.555-13-7.752-4.232-1.465-13.876-4.07-28.93-7.813-19.37-4.8-32.96-10.7-40.773-17.7-10.986-9.847-16.48-21.85-16.48-36.01 0-9.115 2.585-17.64 7.752-25.575 5.168-7.934 12.614-13.976 22.34-18.127 9.724-4.15 21.463-6.225 35.216-6.226 22.46 0 39.368 4.924 50.72 14.77 11.353 9.848 17.314 22.99 17.884 39.43l-36.133 1.586c-1.547-9.195-4.863-15.807-9.95-19.836-5.086-4.028-12.715-6.042-22.888-6.042-10.498 0-18.717 2.156-24.658 6.47-3.825 2.766-5.737 6.47-5.737 11.108 0 4.232 1.79 7.853 5.37 10.864 4.558 3.825 15.626 7.813 33.204 11.963 17.58 4.15 30.58 8.443 39.002 12.878 8.423 4.436 15.015 10.498 19.776 18.19 4.76 7.69 7.14 17.19 7.14 28.502 0 10.254-2.848 19.857-8.544 28.81-5.697 8.95-13.753 15.603-24.17 19.957-10.417 4.354-23.397 6.53-38.94 6.53-22.624 0-40-5.228-52.124-15.685-12.126-10.457-19.37-25.696-21.73-45.715z"
     style="-inkscape-font-specification:Sans Bold"
     font-size="250"
     font-weight="bold"
     fill="#db6200"
     letter-spacing="0"
     word-spacing="0"
     font-family="Sans"
     id="path13" />
</svg>
