<?xml version="1.0" encoding="UTF-8" standalone="no"?>
<svg
   xmlns:dc="http://purl.org/dc/elements/1.1/"
   xmlns:cc="http://creativecommons.org/ns#"
   xmlns:rdf="http://www.w3.org/1999/02/22-rdf-syntax-ns#"
   xmlns:svg="http://www.w3.org/2000/svg"
   xmlns="http://www.w3.org/2000/svg"
   xmlns:sodipodi="http://sodipodi.sourceforge.net/DTD/sodipodi-0.dtd"
   xmlns:inkscape="http://www.inkscape.org/namespaces/inkscape"
   width="20"
   height="20"
   viewBox="0 0 20 20"
   id="svg2"
   version="1.1"
   inkscape:version="0.91 r13725"
   sodipodi:docname="yml.svg">
  <metadata
     id="metadata10">
    <rdf:RDF>
      <cc:Work
         rdf:about="">
        <dc:format>image/svg+xml</dc:format>
        <dc:type
           rdf:resource="http://purl.org/dc/dcmitype/StillImage" />
        <dc:title></dc:title>
      </cc:Work>
    </rdf:RDF>
  </metadata>
  <defs
     id="defs8" />
  <sodipodi:namedview
     pagecolor="#ffffff"
     bordercolor="#666666"
     borderopacity="1"
     objecttolerance="10"
     gridtolerance="10"
     guidetolerance="10"
     inkscape:pageopacity="0"
     inkscape:pageshadow="2"
     inkscape:window-width="1920"
     inkscape:window-height="1018"
     id="namedview6"
     showgrid="false"
     inkscape:zoom="16.68772"
     inkscape:cx="3.2441922"
     inkscape:cy="6.7203234"
     inkscape:window-x="-8"
     inkscape:window-y="-8"
     inkscape:window-maximized="1"
     inkscape:current-layer="svg2"
     showborder="true"
     fit-margin-top="0"
     fit-margin-left="0"
     fit-margin-right="0"
     fit-margin-bottom="0" />
  <g
     id="g7054">
    <path
       style="fill:#e9e9e0"
       d="m 13.208666,0.00991261 -10.3647753,0 c -0.2885652,0 -0.5224887,0.23392356 -0.5224887,0.68784227 l 0,18.95458912 c 0,0.123212 0.2339235,0.357136 0.5224887,0.357136 l 14.3118323,0 c 0.288566,0 0.522489,-0.233924 0.522489,-0.357136 l 0,-15.0075317 c 0,-0.2485661 -0.03321,-0.3285643 -0.09178,-0.3874916 L 13.430804,0.10169638 C 13.371879,0.04312589 13.291879,0.00991261 13.208666,0.00991261 Z"
       id="path5"
       inkscape:connector-curvature="0" />
    <path
       style="fill:#d9d7ca"
       d="m 13.392593,0.06384002 0,4.23169408 4.231693,0 z"
       id="polygon7"
       inkscape:connector-curvature="0" />
    <g
       transform="matrix(0.7591571,0,0,0.7591571,2.3681523,4.9809745)"
       id="g7097">
      <path
         inkscape:connector-curvature="0"
         id="path7088"
         style="font-style:normal;font-variant:normal;font-weight:normal;font-stretch:normal;font-size:medium;line-height:125%;font-family:'Baloo Bhai';-inkscape-font-specification:'Baloo Bhai';letter-spacing:0px;word-spacing:0px;fill:#ff5555;fill-opacity:1;stroke:none;stroke-width:1px;stroke-linecap:butt;stroke-linejoin:miter;stroke-opacity:1"
         d="m 4.700634,0.73406743 q 0,-0.3523848 0.2013627,-0.55374754 0.2114309,-0.21143088 0.5638157,-0.21143088 l 1.610902,0 q 0.050341,0.11074951 0.1006813,0.2718397 0.060409,0.15102206 0.060409,0.34231666 0,0.3523848 -0.1610902,0.50340683 -0.1510221,0.1510221 -0.3926574,0.1510221 l -0.3926573,0 0,5.4569303 0.7853147,0 q 0.050341,0.1107495 0.1006813,0.2617716 0.060409,0.1610902 0.060409,0.3523848 0,0.3523848 -0.1610902,0.5034069 -0.1510221,0.151022 -0.3926574,0.151022 l -1.2182446,0 q -0.3523848,0 -0.5638157,-0.2114309 Q 4.700634,7.5501963 4.700634,7.1978115 l 0,-6.46374407 z" />
      <path
         inkscape:connector-curvature="0"
         id="path7090"
         style="font-style:normal;font-variant:normal;font-weight:normal;font-stretch:normal;font-size:medium;line-height:125%;font-family:'Baloo Bhai';-inkscape-font-specification:'Baloo Bhai';letter-spacing:0px;word-spacing:0px;fill:#ff5555;fill-opacity:1;stroke:none;stroke-width:1px;stroke-linecap:butt;stroke-linejoin:miter;stroke-opacity:1"
         d="m 9.0761906,2.6671498 q 0,-0.4228618 0.2617716,-0.7047696 0.2617716,-0.2819079 0.7148378,-0.2819079 0.453066,0 0.714838,0.2819079 0.261772,0.2819078 0.261772,0.7047696 0,0.4228617 -0.261772,0.7047696 -0.261772,0.2819078 -0.714838,0.2819078 -0.4530662,0 -0.7148378,-0.2819078 Q 9.0761906,3.0900115 9.0761906,2.6671498 Z m 0,3.161395 q 0,-0.4228617 0.2617716,-0.7047696 0.2617716,-0.2819078 0.7148378,-0.2819078 0.453066,0 0.714838,0.2819078 0.261772,0.2819079 0.261772,0.7047696 0,0.4228618 -0.261772,0.7047696 -0.261772,0.2819079 -0.714838,0.2819079 -0.4530662,0 -0.7148378,-0.2819079 Q 9.0761906,6.2514066 9.0761906,5.8285448 Z" />
      <path
         inkscape:connector-curvature="0"
         id="path7092"
         style="font-style:normal;font-variant:normal;font-weight:normal;font-stretch:normal;font-size:medium;line-height:125%;font-family:'Baloo Bhai';-inkscape-font-specification:'Baloo Bhai';letter-spacing:0px;word-spacing:0px;fill:#ff5555;fill-opacity:1;stroke:none;stroke-width:1px;stroke-linecap:butt;stroke-linejoin:miter;stroke-opacity:1"
         d="m 13.028884,7.9629899 q -0.05034,-0.1107495 -0.110749,-0.2718397 -0.05034,-0.151022 -0.05034,-0.3423166 0,-0.3523848 0.151022,-0.5034069 0.16109,-0.1510221 0.402726,-0.1510221 l 0.392657,0 0,-5.4569303 -0.785315,0 q -0.05034,-0.1107495 -0.110749,-0.26177158 -0.05034,-0.16109019 -0.05034,-0.3523848 0,-0.3523848 0.151022,-0.50340686 0.16109,-0.15102205 0.402726,-0.15102205 l 1.218244,0 q 0.352385,0 0.553748,0.21143088 0.211431,0.20136274 0.211431,0.55374754 l 0,6.46374407 q 0,0.3523848 -0.211431,0.5537475 -0.201363,0.2114309 -0.553748,0.2114309 l -1.610902,0 z" />
    </g>
    <path
       id="rect7102"
       d="m 2.321977,13.826934 0,5.825641 c 0,0.123212 0.2333553,0.357338 0.5219205,0.357338 l 14.3112975,0 c 0.288565,0 0.523403,-0.234126 0.523403,-0.357338 l 0,-5.825641 -15.356621,0 z"
       style="opacity:1;fill:#ff5555;fill-opacity:1;stroke:none;stroke-width:1;stroke-linecap:butt;stroke-linejoin:miter;stroke-miterlimit:4;stroke-dasharray:none;stroke-opacity:1"
       inkscape:connector-curvature="0" />
    <g
       id="text7046"
       style="font-style:normal;font-weight:normal;font-size:4.87781668px;line-height:125%;font-family:sans-serif;letter-spacing:0px;word-spacing:0px;fill:#ffffff;fill-opacity:1;stroke:none;stroke-width:1px;stroke-linecap:butt;stroke-linejoin:miter;stroke-opacity:1">
      <path
         id="path7046"
         style="font-style:normal;font-variant:normal;font-weight:normal;font-stretch:normal;font-family:'Baloo Bhai';-inkscape-font-specification:'Baloo Bhai';fill:#ffffff"
         d="m 5.8666047,18.376889 q -0.053656,0.01463 -0.1658458,0.02927 -0.1121897,0.01463 -0.2195017,0.01463 -0.2243796,0 -0.3365694,-0.07317 -0.1121897,-0.07804 -0.1121897,-0.321936 l 0,-0.658505 Q 4.9105526,17.186702 4.769096,16.9672 4.6276393,16.747698 4.4910604,16.518441 4.3544815,16.289184 4.2374139,16.069682 4.1203463,15.845302 4.0471791,15.659945 q 0.063412,-0.0878 0.1707236,-0.160968 0.1121898,-0.07317 0.2731577,-0.07317 0.1902349,0 0.3073025,0.07804 0.1219454,0.07804 0.2292573,0.292669 l 0.4048588,0.814596 0.029267,0 q 0.068289,-0.151213 0.1170676,-0.273158 0.053656,-0.126823 0.1024342,-0.248769 0.048778,-0.126823 0.1024341,-0.258524 0.053656,-0.136579 0.1219454,-0.31218 0.087801,-0.0439 0.1951127,-0.06829 0.107312,-0.02439 0.2048683,-0.02439 0.1707236,0 0.2877912,0.09268 0.1219454,0.0878 0.1219454,0.26828 0,0.05853 -0.024389,0.141456 -0.024389,0.08292 -0.1121898,0.253647 -0.087801,0.165845 -0.2585242,0.453637 -0.1658458,0.287791 -0.453637,0.751183 l 0,0.990197 z" />
      <path
         id="path7048"
         style="font-style:normal;font-variant:normal;font-weight:normal;font-stretch:normal;font-family:'Baloo Bhai';-inkscape-font-specification:'Baloo Bhai';fill:#ffffff"
         d="m 7.5741453,15.528244 q 0.082923,-0.04878 0.2487686,-0.09268 0.1707236,-0.0439 0.3414472,-0.0439 0.2438909,0 0.4292479,0.07317 0.1902348,0.06829 0.2438908,0.219501 0.087801,0.253647 0.1902349,0.590216 0.1024341,0.33657 0.2048683,0.697528 0.1024341,0.356081 0.1999905,0.707283 0.097556,0.346325 0.1707235,0.614605 -0.058534,0.06829 -0.1756014,0.107312 -0.1170676,0.0439 -0.2780355,0.0439 -0.1170676,0 -0.1999905,-0.01951 -0.078045,-0.01951 -0.131701,-0.05853 -0.048778,-0.03902 -0.082923,-0.102435 -0.029267,-0.06341 -0.053656,-0.146334 l -0.087801,-0.336569 -0.8828848,0 q -0.039023,0.146334 -0.078045,0.302424 -0.039022,0.15609 -0.078045,0.302425 -0.068289,0.02439 -0.1463345,0.03902 -0.073167,0.01951 -0.1804792,0.01951 -0.2487686,0 -0.3707141,-0.08292 -0.1170676,-0.0878 -0.1170676,-0.239013 0,-0.06829 0.019511,-0.136579 0.019511,-0.06829 0.0439,-0.160968 0.034145,-0.131701 0.092678,-0.326814 0.063412,-0.195112 0.1365788,-0.419492 0.073167,-0.229257 0.1560902,-0.46827 0.082923,-0.239013 0.1560901,-0.44876 0.073167,-0.214624 0.1317011,-0.380469 0.063412,-0.165846 0.097556,-0.253647 z m 0.585338,0.629239 q -0.068289,0.204868 -0.1560901,0.458514 -0.082923,0.248769 -0.1512124,0.507293 l 0.6048493,0 Q 8.3887407,16.859888 8.3155734,16.61112 8.247284,16.357473 8.1887502,16.157483 l -0.029267,0 z" />
      <path
         id="path7050"
         style="font-style:normal;font-variant:normal;font-weight:normal;font-stretch:normal;font-family:'Baloo Bhai';-inkscape-font-specification:'Baloo Bhai';fill:#ffffff"
         d="m 12.046875,17.669606 q -0.06341,0.05366 -0.165846,0.0878 -0.09756,0.02927 -0.229257,0.02927 -0.175602,0 -0.292669,-0.0439 -0.11219,-0.0439 -0.146335,-0.151212 -0.136579,-0.429248 -0.224379,-0.69265 -0.0878,-0.26828 -0.136579,-0.468271 l -0.02439,0 q -0.01463,0.287792 -0.02439,0.526805 -0.0049,0.234135 -0.0098,0.458514 0,0.22438 -0.0098,0.453637 -0.0049,0.229258 -0.01951,0.507293 -0.06341,0.02439 -0.165846,0.03902 -0.102434,0.01951 -0.204868,0.01951 -0.214624,0 -0.336569,-0.06829 -0.117068,-0.06829 -0.117068,-0.248769 l 0.141457,-2.487687 q 0.03902,-0.06341 0.170723,-0.136578 0.131701,-0.07317 0.370714,-0.07317 0.258525,0 0.404859,0.08292 0.146335,0.07804 0.214624,0.258524 0.0439,0.117068 0.09268,0.26828 0.05366,0.151213 0.102434,0.312181 0.05366,0.160968 0.102434,0.321936 0.04878,0.15609 0.0878,0.282913 l 0.02439,0 q 0.117067,-0.409737 0.234135,-0.790206 0.117067,-0.385348 0.214624,-0.643872 0.07317,-0.03902 0.185357,-0.06341 0.117067,-0.02927 0.258524,-0.02927 0.239013,0 0.390225,0.07317 0.151213,0.06829 0.175602,0.19999 0.01951,0.09756 0.03902,0.302425 0.02439,0.19999 0.04878,0.453637 0.02439,0.253646 0.04878,0.536559 0.02439,0.282914 0.0439,0.546316 0.02439,0.258524 0.03902,0.478026 0.01463,0.214624 0.01951,0.331691 -0.08292,0.04878 -0.175602,0.06829 -0.0878,0.02439 -0.229257,0.02439 -0.185357,0 -0.31218,-0.06341 -0.126823,-0.06341 -0.136579,-0.248768 -0.02927,-0.531682 -0.03902,-0.956052 -0.0049,-0.42437 -0.01951,-0.712162 l -0.02439,0 q -0.04878,0.190235 -0.141457,0.478026 -0.09268,0.287792 -0.224379,0.736551 z" />
      <path
         id="path7052"
         style="font-style:normal;font-variant:normal;font-weight:normal;font-stretch:normal;font-family:'Baloo Bhai';-inkscape-font-specification:'Baloo Bhai';fill:#ffffff"
         d="m 14.343716,18.411034 q -0.209746,0 -0.331691,-0.121946 -0.121946,-0.121945 -0.121946,-0.331691 l 0,-2.521831 q 0.05366,-0.0098 0.170724,-0.02439 0.117067,-0.01951 0.224379,-0.01951 0.11219,0 0.195113,0.01951 0.0878,0.01463 0.146335,0.05853 0.05853,0.0439 0.0878,0.121946 0.02927,0.07804 0.02927,0.204868 l 0,1.926738 1.11702,0 q 0.03415,0.05366 0.06341,0.146334 0.02927,0.0878 0.02927,0.185357 0,0.195113 -0.08292,0.278036 -0.08292,0.07804 -0.219502,0.07804 l -1.307255,0 z" />
    </g>
  </g>
</svg>
