<?xml version="1.0" encoding="iso-8859-1"?>
<!-- Generator: Adobe Illustrator 19.0.0, SVG Export Plug-In . SVG Version: 6.00 Build 0)  -->
<svg version="1.1" id="Layer_1" xmlns="http://www.w3.org/2000/svg" xmlns:xlink="http://www.w3.org/1999/xlink" x="0px" y="0px"
	 viewBox="0 0 512 512" style="enable-background:new 0 0 512 512;" xml:space="preserve">
<path style="fill:#FFB855;" d="M269.587,75.531c8.262,8.166,19.41,12.745,31.026,12.745h17.181h44.614
	c-11.616,0-22.764-4.579-31.026-12.745L303.58,48.055c-8.264-8.166-19.411-12.745-31.027-12.745H210.76
	c11.616,0,22.764,4.579,31.026,12.745L269.587,75.531z"/>
<path style="fill:#FFC85A;" d="M179.992,48.055l27.801,27.476c8.262,8.166,19.41,12.745,31.026,12.745H256h44.614
	c-11.616,0-22.764-4.579-31.026-12.745l-27.801-27.476c-8.264-8.166-19.411-12.745-31.027-12.745h-60.691h-1.102
	C160.583,35.31,171.73,39.89,179.992,48.055z"/>
<path style="fill:#FFDC69;" d="M485.517,88.276H379.586h-17.18h-44.614h-17.18H256h-17.18c-11.616,0-22.764-4.579-31.026-12.745
	l-27.801-27.476c-8.264-8.166-19.411-12.745-31.027-12.745H88.276H26.483C11.857,35.31,0,47.167,0,61.793v52.966v8.828v326.621
	l136.695-136.695c-8.399-17.394-13.109-36.903-13.109-57.512c0-73.13,59.284-132.414,132.414-132.414S388.414,182.87,388.414,256
	L512,379.585V114.759C512,100.132,500.143,88.276,485.517,88.276z"/>
<path style="fill:#FEE484;" d="M186.451,301.209l51.894,51.894l39.162-39.162c-6.698,2.487-13.943,3.852-21.507,3.852
	c-34.127,0-61.793-27.666-61.793-61.793s27.666-61.793,61.793-61.793s61.793,27.666,61.793,61.793
	c0,7.564-1.365,14.809-3.852,21.507l29.265-29.265c10.343-10.343,27.111-10.343,37.452,0l7.756,7.757
	c0-73.13-59.284-132.414-132.414-132.414S123.586,182.87,123.586,256c0,20.609,4.71,40.118,13.109,57.512l12.302-12.302
	C159.34,290.867,176.108,290.867,186.451,301.209z"/>
<path style="fill:#FEEC9F;" d="M256,194.207c-34.127,0-61.793,27.666-61.793,61.793s27.666,61.793,61.793,61.793
	c7.564,0,14.809-1.365,21.507-3.852l36.433-36.434c2.488-6.698,3.853-13.943,3.853-21.507
	C317.793,221.873,290.127,194.207,256,194.207z M256,291.31c-19.501,0-35.31-15.809-35.31-35.31s15.809-35.31,35.31-35.31
	s35.31,15.809,35.31,35.31S275.501,291.31,256,291.31z"/>
<circle style="fill:#FFFFFF;" cx="256" cy="256" r="35.31"/>
<path style="fill:#B4EBBE;" d="M380.658,248.244c-10.343-10.343-27.111-10.343-37.452,0l-29.265,29.265l-36.433,36.434
	l-39.164,39.161L361.931,476.69h123.586c2.285,0,4.503-0.289,6.618-0.833c2.115-0.545,4.129-1.344,6.005-2.362
	c0.75-0.408,1.479-0.851,2.184-1.326c2.818-1.905,5.249-4.335,7.154-7.154c0.476-0.704,0.919-1.432,1.326-2.184
	c1.02-1.877,1.818-3.89,2.362-6.005c0.544-2.115,0.833-4.333,0.833-6.618v-70.622L388.414,256L380.658,248.244z"/>
<path style="fill:#A0D778;" d="M238.345,353.103l-51.894-51.894c-10.343-10.343-27.111-10.343-37.452,0l-12.303,12.302L0,450.207
	c0,2.285,0.289,4.503,0.834,6.618c0.544,2.115,1.343,4.128,2.362,6.005c0.407,0.75,0.851,1.479,1.326,2.184
	c1.903,2.818,4.335,5.249,7.154,7.154c0.704,0.476,1.433,0.919,2.184,1.326c1.876,1.018,3.89,1.817,6.005,2.362
	c2.114,0.544,4.332,0.833,6.617,0.833H220.69h141.241L238.345,353.103z"/>
<g>
</g>
<g>
</g>
<g>
</g>
<g>
</g>
<g>
</g>
<g>
</g>
<g>
</g>
<g>
</g>
<g>
</g>
<g>
</g>
<g>
</g>
<g>
</g>
<g>
</g>
<g>
</g>
<g>
</g>
</svg>
