<?xml version="1.0" encoding="UTF-8" standalone="no"?>
<!-- Generator: Adobe Illustrator 19.0.0, SVG Export Plug-In . SVG Version: 6.00 Build 0)  -->

<svg
   xmlns:dc="http://purl.org/dc/elements/1.1/"
   xmlns:cc="http://creativecommons.org/ns#"
   xmlns:rdf="http://www.w3.org/1999/02/22-rdf-syntax-ns#"
   xmlns:svg="http://www.w3.org/2000/svg"
   xmlns="http://www.w3.org/2000/svg"
   xmlns:sodipodi="http://sodipodi.sourceforge.net/DTD/sodipodi-0.dtd"
   xmlns:inkscape="http://www.inkscape.org/namespaces/inkscape"
   version="1.1"
   id="Layer_1"
   x="0px"
   y="0px"
   viewBox="0 0 717 612"
   xml:space="preserve"
   inkscape:version="0.91 r13725"
   sodipodi:docname="folder-index.svg"
   width="717"
   height="612"><metadata
     id="metadata47"><rdf:RDF><cc:Work
         rdf:about=""><dc:format>image/svg+xml</dc:format><dc:type
           rdf:resource="http://purl.org/dc/dcmitype/StillImage" /><dc:title></dc:title></cc:Work></rdf:RDF></metadata><defs
     id="defs45" /><sodipodi:namedview
     pagecolor="#ffffff"
     bordercolor="#666666"
     borderopacity="1"
     objecttolerance="10"
     gridtolerance="10"
     guidetolerance="10"
     inkscape:pageopacity="0"
     inkscape:pageshadow="2"
     inkscape:window-width="1920"
     inkscape:window-height="1018"
     id="namedview43"
     showgrid="false"
     showborder="true"
     inkscape:object-paths="true"
     showguides="false"
     inkscape:zoom="0.65186406"
     inkscape:cx="287.43966"
     inkscape:cy="164.91826"
     inkscape:window-x="-8"
     inkscape:window-y="-8"
     inkscape:window-maximized="1"
     inkscape:current-layer="Layer_1"
     inkscape:showpageshadow="false" /><g
     id="g7247"><path
       inkscape:connector-curvature="0"
       id="path3"
       d="m 474.76881,175.531 c 8.262,8.166 19.41,12.745 31.026,12.745 l 17.18,0 44.614,0 c -11.616,0 -22.764,-4.579 -31.026,-12.745 l -27.802,-27.476 c -8.263,-8.166 -19.41,-12.745 -31.026,-12.745 l -61.794,0 c 11.616,0 22.764,4.579 31.026,12.745 l 27.802,27.476 z"
       style="fill:#ffb855" /><path
       inkscape:connector-curvature="0"
       id="path5"
       d="m 385.17281,148.055 27.802,27.476 c 8.262,8.166 19.41,12.745 31.026,12.745 l 17.18,0 44.614,0 c -11.616,0 -22.764,-4.579 -31.026,-12.745 l -27.802,-27.476 c -8.263,-8.166 -19.41,-12.745 -31.026,-12.745 l -60.691,0 -1.102,0 c 11.616,0 22.763,4.58 31.025,12.745 z"
       style="fill:#ffc85a" /><path
       sodipodi:nodetypes="scccccscsscssccssssss"
       inkscape:connector-curvature="0"
       id="path7"
       d="m 690.69781,188.276 -105.931,0 -17.18,0 -44.614,0 -17.18,0 -44.612,0 -17.18,0 c -11.616,0 -22.764,-4.579 -31.026,-12.745 l -27.802,-27.476 c -8.263,-8.166 -19.41,-12.745 -31.026,-12.745 l -60.69,0 -61.793,0 c -14.626,0 -26.483,11.857 -26.483,26.483 l 0,52.966 0,8.828 0,326.621 c 0,14.626 11.857,26.483 26.483,26.483 l 459.034,0 c 14.626,0 26.483,-11.857 26.483,-26.483 l 0,-335.449 c 0,-14.627 -11.857,-26.483 -26.483,-26.483 z"
       style="opacity:1;fill:#ffc85a;fill-opacity:1" /><g
       transform="translate(0,100)"
       id="g13" /><g
       transform="translate(0,100)"
       id="g15" /><g
       transform="translate(0,100)"
       id="g17" /><g
       transform="translate(0,100)"
       id="g19" /><g
       transform="translate(0,100)"
       id="g21" /><g
       transform="translate(0,100)"
       id="g23" /><g
       transform="translate(0,100)"
       id="g25" /><g
       transform="translate(0,100)"
       id="g27" /><g
       transform="translate(0,100)"
       id="g29" /><g
       transform="translate(0,100)"
       id="g31" /><g
       transform="translate(0,100)"
       id="g33" /><g
       transform="translate(0,100)"
       id="g35" /><g
       transform="translate(0,100)"
       id="g37" /><g
       transform="translate(0,100)"
       id="g39" /><g
       transform="translate(0,100)"
       id="g41" /><g
       transform="translate(-328.51408,100)"
       id="g7235"><rect
         ry="2.8875239"
         rx="1.8243269"
         y="55.406212"
         x="579.92822"
         height="421.28479"
         width="419.53333"
         id="rect7166"
         style="opacity:1;fill:#f2f2f2;fill-opacity:1;stroke:none;stroke-width:1.5;stroke-linecap:square;stroke-linejoin:round;stroke-miterlimit:4;stroke-dasharray:none;stroke-opacity:1" /><rect
         style="opacity:1;fill:#afdde9;fill-opacity:1;stroke:none;stroke-width:1.5;stroke-linecap:square;stroke-linejoin:round;stroke-miterlimit:4;stroke-dasharray:none;stroke-opacity:1"
         id="rect7168"
         width="386.16949"
         height="59.661018"
         x="595.13263"
         y="71.582542"
         rx="1.82433"
         ry="2.8875201" /><rect
         ry="1.1798453"
         rx="1.82433"
         y="150.769"
         x="595.13263"
         height="24.377588"
         width="386.16949"
         id="rect7172"
         style="opacity:1;fill:#b3b3b3;fill-opacity:1;stroke:none;stroke-width:1.5;stroke-linecap:square;stroke-linejoin:round;stroke-miterlimit:4;stroke-dasharray:none;stroke-opacity:1" /><rect
         style="opacity:1;fill:#b3b3b3;fill-opacity:1;stroke:none;stroke-width:1.5;stroke-linecap:square;stroke-linejoin:round;stroke-miterlimit:4;stroke-dasharray:none;stroke-opacity:1"
         id="rect7174"
         width="185.55699"
         height="95.538597"
         x="795.74512"
         y="194.48976"
         rx="0.87660265"
         ry="4.6239505" /><g
         id="g7229"
         transform="translate(-206.44596,0)"><path
           sodipodi:nodetypes="cccccssccc"
           inkscape:connector-curvature="0"
           id="path7188"
           d="m 909.26218,215.5719 -37.96484,73.22071 -37.72641,-30.37305 -31.99234,78.15039 0.44726,1.1875 164.45508,0 c 0.43454,0 0.78516,-3.09218 0.78516,-6.93359 l 0,-65.35352 -21.66407,16.8125 z"
           style="opacity:1;fill:#87de87;fill-opacity:1;stroke:none;stroke-width:1.5;stroke-linecap:square;stroke-linejoin:round;stroke-miterlimit:4;stroke-dasharray:none;stroke-opacity:1" /><circle
           r="18.216988"
           cy="220.70613"
           cx="827.23724"
           id="path7193"
           style="opacity:1;fill:#ffd42a;fill-opacity:1;stroke:none;stroke-width:1.5;stroke-linecap:square;stroke-linejoin:round;stroke-miterlimit:4;stroke-dasharray:none;stroke-opacity:1" /></g><rect
         ry="1.2169685"
         rx="0.78436124"
         y="361.70255"
         x="595.13263"
         height="25.144617"
         width="166.03157"
         id="rect7180"
         style="opacity:1;fill:#b3b3b3;fill-opacity:1;stroke:none;stroke-width:1.5;stroke-linecap:square;stroke-linejoin:round;stroke-miterlimit:4;stroke-dasharray:none;stroke-opacity:1" /><rect
         ry="1.2169685"
         rx="1.8245877"
         y="408.34659"
         x="595.07806"
         height="25.144617"
         width="386.224"
         id="rect7184"
         style="opacity:1;fill:#b3b3b3;fill-opacity:1;stroke:none;stroke-width:1.5;stroke-linecap:square;stroke-linejoin:round;stroke-miterlimit:4;stroke-dasharray:none;stroke-opacity:1" /><rect
         ry="4.0163326"
         rx="0.87660265"
         y="304.0491"
         x="795.74512"
         height="82.984192"
         width="185.55699"
         id="rect7233"
         style="opacity:1;fill:#b3b3b3;fill-opacity:1;stroke:none;stroke-width:1.5;stroke-linecap:square;stroke-linejoin:round;stroke-miterlimit:4;stroke-dasharray:none;stroke-opacity:1" /></g><g
       style="opacity:1"
       transform="matrix(1,0,0.48658349,0.58640404,-26.769159,297.15747)"
       id="g7117"><path
         inkscape:connector-curvature="0"
         style="fill:#fff0b9;stroke:none"
         d="m 459.034,123.586 -123.586,0 c -9.751,0 -17.655,7.905 -17.655,17.655 l 0,8.828 c 0,9.75 7.904,17.655 17.655,17.655 l 123.586,0 c 9.751,0 17.655,-7.905 17.655,-17.655 l 0,-8.828 c 10e-4,-9.75 -7.903,-17.655 -17.655,-17.655 z"
         id="path9" /><path
         inkscape:connector-curvature="0"
         style="fill:#ffc85a"
         d="m 282.483,123.586 -8.828,0 c -9.751,0 -17.655,7.905 -17.655,17.655 l 0,8.828 c 0,9.75 7.904,17.655 17.655,17.655 l 8.828,0 c 9.751,0 17.655,-7.905 17.655,-17.655 l 0,-8.828 c 0,-9.75 -7.904,-17.655 -17.655,-17.655 z"
         id="path11" /><path
         inkscape:connector-curvature="0"
         id="path7115"
         d="m 485.517,88.276 -105.931,0 -17.18,0 -44.614,0 -17.18,0 -44.612,0 -17.18,0 c -11.616,0 -22.764,-4.579 -31.026,-12.745 L 179.992,48.055 C 171.729,39.889 160.582,35.31 148.966,35.31 l -60.69,0 -61.793,0 C 11.857,35.31 0,47.167 0,61.793 l 0,52.966 0,8.828 0,326.621 c 0,14.626 11.857,26.483 26.483,26.483 l 459.034,0 c 14.626,0 26.483,-11.857 26.483,-26.483 l 0,-335.449 c 0,-14.627 -11.857,-26.483 -26.483,-26.483 z m -185.379,61.793 c 0,9.75 -7.904,17.655 -17.655,17.655 l -8.828,0 c -9.751,0 -17.655,-7.905 -17.655,-17.655 l 0,-8.828 c 0,-9.75 7.904,-17.655 17.655,-17.655 l 8.828,0 c 9.751,0 17.655,7.905 17.655,17.655 l 0,8.828 z m 176.552,0 c 0,9.75 -7.904,17.655 -17.655,17.655 l -123.587,0 c -9.751,0 -17.655,-7.905 -17.655,-17.655 l 0,-8.828 c 0,-9.75 7.904,-17.655 17.655,-17.655 l 123.586,0 c 9.751,0 17.655,7.905 17.655,17.655 l 0,8.828 z"
         style="fill:#ffdc69" /></g></g></svg>