<?xml version="1.0" encoding="UTF-8" standalone="no"?>
<!-- Generator: Adobe Illustrator 19.0.0, SVG Export Plug-In . SVG Version: 6.00 Build 0)  -->

<svg
   xmlns:dc="http://purl.org/dc/elements/1.1/"
   xmlns:cc="http://creativecommons.org/ns#"
   xmlns:rdf="http://www.w3.org/1999/02/22-rdf-syntax-ns#"
   xmlns:svg="http://www.w3.org/2000/svg"
   xmlns="http://www.w3.org/2000/svg"
   xmlns:sodipodi="http://sodipodi.sourceforge.net/DTD/sodipodi-0.dtd"
   xmlns:inkscape="http://www.inkscape.org/namespaces/inkscape"
   version="1.1"
   id="Layer_1"
   x="0px"
   y="0px"
   viewBox="0 0 512 512"
   style="enable-background:new 0 0 512 512;"
   xml:space="preserve"
   inkscape:version="0.91 r13725"
   sodipodi:docname="folder-profil.svg"><metadata
     id="metadata47"><rdf:RDF><cc:Work
         rdf:about=""><dc:format>image/svg+xml</dc:format><dc:type
           rdf:resource="http://purl.org/dc/dcmitype/StillImage" /><dc:title></dc:title></cc:Work></rdf:RDF></metadata><defs
     id="defs45" /><sodipodi:namedview
     pagecolor="#ffffff"
     bordercolor="#666666"
     borderopacity="1"
     objecttolerance="10"
     gridtolerance="10"
     guidetolerance="10"
     inkscape:pageopacity="0"
     inkscape:pageshadow="2"
     inkscape:window-width="1920"
     inkscape:window-height="1018"
     id="namedview43"
     showgrid="false"
     showborder="false"
     inkscape:object-paths="true"
     showguides="false"
     inkscape:zoom="0.921875"
     inkscape:cx="209.5165"
     inkscape:cy="159.14642"
     inkscape:window-x="-8"
     inkscape:window-y="-8"
     inkscape:window-maximized="1"
     inkscape:current-layer="Layer_1" /><path
     style="fill:#FFB855;"
     d="M269.588,75.531c8.262,8.166,19.41,12.745,31.026,12.745h17.18h44.614  c-11.616,0-22.764-4.579-31.026-12.745l-27.802-27.476c-8.263-8.166-19.41-12.745-31.026-12.745H210.76  c11.616,0,22.764,4.579,31.026,12.745L269.588,75.531z"
     id="path3" /><path
     style="fill:#FFC85A;"
     d="M179.992,48.055l27.802,27.476c8.262,8.166,19.41,12.745,31.026,12.745H256h44.614  c-11.616,0-22.764-4.579-31.026-12.745l-27.802-27.476c-8.263-8.166-19.41-12.745-31.026-12.745h-60.691h-1.102  C160.583,35.31,171.73,39.89,179.992,48.055z"
     id="path5" /><path
     style="opacity:1;fill:#ffc85a;fill-opacity:1"
     d="m 485.517,88.276 -105.931,0 -17.18,0 -44.614,0 -17.18,0 -44.612,0 -17.18,0 c -11.616,0 -22.764,-4.579 -31.026,-12.745 L 179.992,48.055 C 171.729,39.889 160.582,35.31 148.966,35.31 l -60.69,0 -61.793,0 C 11.857,35.31 0,47.167 0,61.793 l 0,52.966 0,8.828 0,326.621 c 0,14.626 11.857,26.483 26.483,26.483 l 459.034,0 c 14.626,0 26.483,-11.857 26.483,-26.483 l 0,-335.449 c 0,-14.627 -11.857,-26.483 -26.483,-26.483 z"
     id="path7"
     inkscape:connector-curvature="0"
     sodipodi:nodetypes="scccccscsscssccssssss" /><g
     id="g7144"
     transform="translate(-22.246582,0)"><rect
       ry="2.8875239"
       rx="1.8243269"
       y="54.069878"
       x="68.479919"
       height="421.28479"
       width="419.53333"
       id="rect7069"
       style="opacity:1;fill:#f2f2f2;fill-opacity:1;stroke:none;stroke-width:1.5;stroke-linecap:square;stroke-linejoin:round;stroke-miterlimit:4;stroke-dasharray:none;stroke-opacity:1" /><rect
       style="opacity:1;fill:#afdde9;fill-opacity:1;stroke:none;stroke-width:1.5;stroke-linecap:square;stroke-linejoin:round;stroke-miterlimit:4;stroke-dasharray:none;stroke-opacity:1"
       id="rect7073"
       width="91.216339"
       height="12.155022"
       x="82.734558"
       y="179.08313"
       rx="1.8727765"
       ry="0.24955659" /><rect
       ry="1.8243269"
       rx="1.8243269"
       y="78.682259"
       x="194.14203"
       height="89.546623"
       width="282.98709"
       id="rect7075"
       style="opacity:1;fill:#b3b3b3;fill-opacity:1;stroke:none;stroke-width:1.5;stroke-linecap:square;stroke-linejoin:round;stroke-miterlimit:4;stroke-dasharray:none;stroke-opacity:1" /><rect
       style="opacity:1;fill:#b3b3b3;fill-opacity:1;stroke:none;stroke-width:1.5;stroke-linecap:square;stroke-linejoin:round;stroke-miterlimit:4;stroke-dasharray:none;stroke-opacity:1"
       id="rect7077"
       width="126.96342"
       height="18.22876"
       x="194.14203"
       y="181.58665"
       rx="0.81849241"
       ry="0.37137324" /><circle
       r="11.131485"
       cy="212.63171"
       cx="93.866028"
       id="path7081"
       style="opacity:1;fill:#afdde9;fill-opacity:1;stroke:none;stroke-width:1.5;stroke-linecap:square;stroke-linejoin:round;stroke-miterlimit:4;stroke-dasharray:none;stroke-opacity:1" /><circle
       style="opacity:1;fill:#afdde9;fill-opacity:1;stroke:none;stroke-width:1.5;stroke-linecap:square;stroke-linejoin:round;stroke-miterlimit:4;stroke-dasharray:none;stroke-opacity:1"
       id="circle7083"
       cx="128.34271"
       cy="212.63171"
       r="11.131485" /><circle
       r="11.131485"
       cy="212.63171"
       cx="162.8194"
       id="circle7085"
       style="opacity:1;fill:#afdde9;fill-opacity:1;stroke:none;stroke-width:1.5;stroke-linecap:square;stroke-linejoin:round;stroke-miterlimit:4;stroke-dasharray:none;stroke-opacity:1" /><circle
       r="45.60817"
       cy="124.29042"
       cx="128.34271"
       id="path7087"
       style="opacity:1;fill:#afdde9;fill-opacity:1;stroke:none;stroke-width:1.5;stroke-linecap:square;stroke-linejoin:round;stroke-miterlimit:4;stroke-dasharray:none;stroke-opacity:1" /><rect
       ry="0.37137324"
       rx="0.81849241"
       y="181.58665"
       x="350.16571"
       height="18.22876"
       width="126.96342"
       id="rect7099"
       style="opacity:1;fill:#b3b3b3;fill-opacity:1;stroke:none;stroke-width:1.5;stroke-linecap:square;stroke-linejoin:round;stroke-miterlimit:4;stroke-dasharray:none;stroke-opacity:1" /><rect
       style="opacity:1;fill:#b3b3b3;fill-opacity:1;stroke:none;stroke-width:1.5;stroke-linecap:square;stroke-linejoin:round;stroke-miterlimit:4;stroke-dasharray:none;stroke-opacity:1"
       id="rect7101"
       width="282.98709"
       height="34.623493"
       x="194.14203"
       y="216.51482"
       rx="1.8243269"
       ry="0.70538187" /></g><g
     id="g13" /><g
     id="g15" /><g
     id="g17" /><g
     id="g19" /><g
     id="g21" /><g
     id="g23" /><g
     id="g25" /><g
     id="g27" /><g
     id="g29" /><g
     id="g31" /><g
     id="g33" /><g
     id="g35" /><g
     id="g37" /><g
     id="g39" /><g
     id="g41" /><g
     id="g7117"
     transform="matrix(1,0,0.48658349,0.58640404,-231.94997,197.15747)"
     style="opacity:1"><path
       id="path9"
       d="m 459.034,123.586 -123.586,0 c -9.751,0 -17.655,7.905 -17.655,17.655 l 0,8.828 c 0,9.75 7.904,17.655 17.655,17.655 l 123.586,0 c 9.751,0 17.655,-7.905 17.655,-17.655 l 0,-8.828 c 10e-4,-9.75 -7.903,-17.655 -17.655,-17.655 z"
       style="fill:#fff0b9;stroke:none"
       inkscape:connector-curvature="0" /><path
       id="path11"
       d="m 282.483,123.586 -8.828,0 c -9.751,0 -17.655,7.905 -17.655,17.655 l 0,8.828 c 0,9.75 7.904,17.655 17.655,17.655 l 8.828,0 c 9.751,0 17.655,-7.905 17.655,-17.655 l 0,-8.828 c 0,-9.75 -7.904,-17.655 -17.655,-17.655 z"
       style="fill:#ffc85a"
       inkscape:connector-curvature="0" /><path
       style="fill:#ffdc69"
       d="m 485.517,88.276 -105.931,0 -17.18,0 -44.614,0 -17.18,0 -44.612,0 -17.18,0 c -11.616,0 -22.764,-4.579 -31.026,-12.745 L 179.992,48.055 C 171.729,39.889 160.582,35.31 148.966,35.31 l -60.69,0 -61.793,0 C 11.857,35.31 0,47.167 0,61.793 l 0,52.966 0,8.828 0,326.621 c 0,14.626 11.857,26.483 26.483,26.483 l 459.034,0 c 14.626,0 26.483,-11.857 26.483,-26.483 l 0,-335.449 c 0,-14.627 -11.857,-26.483 -26.483,-26.483 z m -185.379,61.793 c 0,9.75 -7.904,17.655 -17.655,17.655 l -8.828,0 c -9.751,0 -17.655,-7.905 -17.655,-17.655 l 0,-8.828 c 0,-9.75 7.904,-17.655 17.655,-17.655 l 8.828,0 c 9.751,0 17.655,7.905 17.655,17.655 l 0,8.828 z m 176.552,0 c 0,9.75 -7.904,17.655 -17.655,17.655 l -123.587,0 c -9.751,0 -17.655,-7.905 -17.655,-17.655 l 0,-8.828 c 0,-9.75 7.904,-17.655 17.655,-17.655 l 123.586,0 c 9.751,0 17.655,7.905 17.655,17.655 l 0,8.828 z"
       id="path7115"
       inkscape:connector-curvature="0" /></g></svg>