<svg xmlns="http://www.w3.org/2000/svg" viewBox="0 0 792 792">
  <g fill="#000">
    <path d="M324.082 693.8c-6.832 0-12.4-5.544-12.4-12.376s5.542-12.375 12.4-12.375h143.86c6.832 0 12.375 5.542 12.375 12.374s-5.543 12.375-12.375 12.375h-143.86zM340.066 742.912c-6.832 0-12.375-5.543-12.375-12.375s5.57-12.375 12.376-12.375h111.89c6.833 0 12.376 5.543 12.376 12.375s-5.543 12.375-12.375 12.375h-111.89zM384.358 571.828c0 6.807-5.517 12.323-12.323 12.323s-12.323-5.517-12.323-12.322c-.052-52.104-1.547-91.033-8.74-127.076-7.115-35.63-19.852-68.655-42.46-109.39-3.3-5.955-1.16-13.458 4.77-16.758 5.955-3.3 13.457-1.16 16.783 4.77 24.002 43.26 37.59 78.48 45.168 116.558 7.5 37.59 9.074 77.962 9.125 131.896zM432.312 571.828c0 6.807-5.518 12.323-12.323 12.323s-12.324-5.517-12.324-12.322c.053-53.936 1.624-94.282 9.126-131.896 7.58-38.08 21.167-73.295 45.17-116.558 3.3-5.955 10.827-8.095 16.758-4.77 5.956 3.3 8.068 10.828 4.77 16.758-22.61 40.734-35.346 73.787-42.462 109.39-7.17 36.043-8.69 74.973-8.716 127.076z"/>
    <path d="M315.523 341.112c-6.497-2.063-10.055-9.023-7.992-15.52 2.09-6.498 9.024-10.056 15.522-7.993 8.61 2.784 16.062 6.522 22.945 9.977l.67.36c10.75 5.415 19.697 9.643 26.348 4.23l15.21-12.402c5.286-4.28 13.074-3.48 17.352 1.805 4.28 5.285 3.48 13.07-1.805 17.35l-15.21 12.402c-18.95 15.417-34.445 7.915-53.11-1.444l-.567-.258c-6.033-3.043-12.582-6.317-19.362-8.508zM408.388 60.328c0 6.832-5.543 12.375-12.376 12.375-6.832 0-12.375-5.543-12.375-12.375V12.375C383.637 5.543 389.18 0 396.012 0c6.834 0 12.376 5.543 12.376 12.375v47.953z"/>
    <path d="M468.974 317.6c6.497-2.09 13.458 1.495 15.52 7.99 2.09 6.498-1.494 13.46-7.99 15.522-6.78 2.19-13.33 5.49-19.39 8.534l-.565.258c-18.642 9.358-34.16 16.887-53.11 1.443l-15.21-12.4c-5.286-4.28-6.085-12.066-1.806-17.35 4.28-5.286 12.066-6.085 17.352-1.806l15.21 12.402c6.653 5.414 15.573 1.16 26.35-4.228l.672-.36c6.904-3.482 14.354-7.22 22.966-10.005z"/>
    <path d="M551.706 192.354c39.832 39.832 64.505 94.9 64.505 155.693 0 23.77-3.814 46.74-10.827 68.27-7.244 22.25-17.995 43.003-31.53 61.515-22.713 31.066-41.146 51.46-55.455 67.313-25.756 28.488-37.048 40.968-37.048 82.63 0 6.832-5.543 12.375-12.375 12.375H324.11c-6.833 0-12.402-5.543-12.402-12.375 0-41.25-11.524-53.857-37.1-81.882l-.025-.025-.026.025c-14.463-15.83-33.077-36.223-56.358-68.062-13.536-18.51-24.287-39.29-31.53-61.54-7.014-21.5-10.83-44.498-10.83-68.242 0-29.75 5.957-58.214 16.733-84.202l.232-.49c11.19-26.813 27.483-50.944 47.566-71 20.214-20.213 44.474-36.56 71.493-47.748v-.026c25.987-10.776 54.45-16.732 84.202-16.732 29.702 0 58.137 5.956 84.15 16.732 26.967 11.19 51.278 27.56 71.49 47.772zm39.73 155.693c0-53.96-21.89-102.815-57.235-138.188-18.07-18.074-39.6-32.614-63.42-42.463-22.946-9.513-48.212-14.772-74.768-14.772-26.53 0-51.794 5.26-74.714 14.772v-.025l-.052.025c-23.822 9.85-45.323 24.39-63.396 42.462-17.892 17.89-32.355 39.238-42.23 62.802l-.258.67c-9.487 22.92-14.772 48.185-14.772 74.714 0 21.192 3.377 41.61 9.565 60.61 6.47 19.774 15.984 38.184 27.947 54.58 22.353 30.576 40.554 50.506 54.708 66.025l-.026.026c27.534 30.087 41.224 45.143 43.364 86.135h120.708c2.114-41.274 15.546-56.176 43.21-86.753 13.818-15.288 31.58-34.96 53.83-65.38 11.963-16.372 21.477-34.78 27.922-54.554 6.24-19.075 9.617-39.468 9.617-60.686zM356.05 792c-6.83 0-12.374-5.543-12.374-12.375s5.543-12.375 12.375-12.375h79.924c6.832 0 12.375 5.543 12.375 12.375S442.805 792 435.973 792H356.05zM547.84 104.285c-3.38 5.878-10.934 7.915-16.838 4.538-5.878-3.377-7.913-10.93-4.536-16.835l23.977-41.533c3.377-5.878 10.932-7.915 16.835-4.538 5.904 3.377 7.915 10.93 4.538 16.835l-23.977 41.533zM265.533 92.013c3.377 5.878 1.367 13.432-4.538 16.81-5.878 3.377-13.432 1.34-16.81-4.538L220.21 62.75c-3.378-5.877-1.342-13.43 4.537-16.808 5.904-3.377 13.458-1.34 16.835 4.537l23.95 41.533zM157.69 190.78c5.878 3.378 7.915 10.932 4.538 16.836-3.377 5.878-10.932 7.915-16.81 4.538l-41.534-23.977c-5.904-3.377-7.94-10.93-4.563-16.81 3.378-5.903 10.932-7.914 16.836-4.537l41.534 23.95zM646.606 212.154c-5.904 3.377-13.458 1.34-16.835-4.538-3.377-5.904-1.34-13.458 4.538-16.835l41.534-23.976c5.902-3.377 13.456-1.34 16.835 4.538 3.377 5.878 1.34 13.458-4.538 16.835l-41.534 23.977z"/>
    <path d="M267.44 396.954c2.63 6.265-.308 13.51-6.573 16.14-6.265 2.63-13.51-.31-16.14-6.575-4.202-9.95-7.476-20.444-9.642-31.272-2.14-10.7-3.3-21.63-3.3-32.613 0-6.832 5.57-12.375 12.375-12.375 6.832 0 12.375 5.57 12.375 12.375 0 9.668.954 18.975 2.733 27.792 1.83 9.176 4.615 18.096 8.173 26.527zm0-108.668c-2.628 6.265-9.873 9.204-16.138 6.574-6.265-2.63-9.204-9.875-6.574-16.14 4.15-9.822 9.23-19.13 15.03-27.766l.026-.026-.026-.025c5.956-8.817 12.71-17.016 20.11-24.415 7.32-7.322 15.52-14.077 24.44-20.083v-.026c8.56-5.776 17.917-10.855 27.817-15.03 9.926-4.204 20.393-7.478 31.247-9.644 10.7-2.166 21.682-3.3 32.64-3.3 6.833 0 12.375 5.543 12.375 12.375 0 6.833-5.543 12.376-12.376 12.376-9.693 0-19.025.954-27.817 2.707-9.204 1.83-18.1 4.64-26.503 8.198-8.172 3.456-16.062 7.76-23.564 12.814h-.026c-7.296 4.898-14.257 10.673-20.702 17.12-6.368 6.367-12.143 13.354-17.12 20.753l-.025-.026c-5.026 7.453-9.332 15.342-12.812 23.566z"/>
  </g>
</svg>