<svg xmlns="http://www.w3.org/2000/svg" viewBox="0 0 53 53">
  <path d="M26.5 9c-8.837 0-16 7.164-16 16 0 7.09 4.615 13.09 11 15.192V50h2v3h6v-3h2v-9.808c6.385-2.1 11-8.103 11-15.192 0-8.836-7.163-16-16-16z" fill="#EFCE4A"/>
  <g fill="#EFCE4A">
    <path d="M26.5 0c-.553 0-1 .447-1 1v4c0 .553.447 1 1 1s1-.447 1-1V1c0-.553-.447-1-1-1zM50.5 24h-4c-.553 0-1 .447-1 1s.447 1 1 1h4c.553 0 1-.447 1-1s-.447-1-1-1zM6.5 24h-4c-.553 0-1 .447-1 1s.447 1 1 1h4c.553 0 1-.447 1-1s-.447-1-1-1zM42.764 7.322l-2.828 2.828c-.39.39-.39 1.023 0 1.414.195.195.45.293.707.293s.512-.098.707-.293l2.828-2.828c.39-.39.39-1.023 0-1.414s-1.024-.39-1.414 0zM11.65 38.436l-2.828 2.828c-.39.39-.39 1.023 0 1.414.195.195.45.293.707.293s.51-.097.706-.292l2.828-2.828c.39-.39.39-1.023 0-1.414s-1.023-.39-1.414 0zM41.35 38.436c-.39-.39-1.023-.39-1.414 0s-.39 1.023 0 1.414l2.828 2.828c.195.195.45.293.707.293s.513-.097.708-.292c.39-.39.39-1.023 0-1.414l-2.828-2.828zM10.236 7.322c-.39-.39-1.023-.39-1.414 0s-.39 1.023 0 1.414l2.828 2.828c.195.195.45.293.707.293s.512-.098.707-.293c.39-.39.39-1.023 0-1.414l-2.828-2.828z"/>
  </g>
  <path d="M15.5 26c-.553 0-1-.447-1-1 0-6.617 5.383-12 12-12 .553 0 1 .447 1 1s-.447 1-1 1c-5.514 0-10 4.486-10 10 0 .553-.447 1-1 1z" fill="#F7E6A1"/>
  <path fill="#556080" d="M21.5 43v7h2v3h6v-3h2v-7"/>
</svg>
