<svg xmlns="http://www.w3.org/2000/svg" viewBox="0 0 58 58">
  <g fill="currentColor">
    <path d="M9.5 43c-2.757 0-5 2.243-5 5s2.243 5 5 5 5-2.243 5-5-2.243-5-5-5zm0 8c-1.654 0-3-1.346-3-3s1.346-3 3-3 3 1.346 3 3-1.346 3-3 3z"/>
    <path d="M56.5 35c0-2.495-1.375-3.662-2.715-4.233C54.835 29.85 55.5 28.5 55.5 27c0-2.757-2.243-5-5-5H36.134l.73-3.41c.972-4.55.333-9.716.115-11.19C36.46 3.905 33.37 0 30.012 0h-.24C28.18 0 25.5.91 25.5 7c0 8.023-2.002 11.694-3.68 13.36-1.648 1.634-3.232 1.616-3.32 1.64h-1v-2h-16v38h16v-2h28c2.757 0 5-2.243 5-5 0-1.164-.4-2.236-1.07-3.087 2.315-.437 4.07-2.474 4.07-4.913 0-1.164-.4-2.236-1.07-3.087 2.315-.437 4.07-2.474 4.07-4.913zm-53 21V22h12v34h-12zm48-18h-11c-.552 0-1 .447-1 1s.448 1 1 1h8c1.654 0 3 1.346 3 3s-1.346 3-3 3h-10c-.552 0-1 .447-1 1s.448 1 1 1h7c1.654 0 3 1.346 3 3s-1.346 3-3 3h-28V24h.97c.096.018 2.42.05 4.68-2.145C26.038 19.06 27.5 14.06 27.5 7c0-1.867.295-5 2.274-5h.24C32.243 2 34.62 5.13 35 7.69c.207 1.393.81 6.26-.093 10.48L33.662 24H50.5c1.654 0 3 1.346 3 3s-1.346 3-3 3h-10c-.552 0-1 .447-1 1s.448 1 1 1h7c.883 0 2.825.04 3.854.193 2.61.387 3.146 1.402 3.146 2.807 0 1.654-1.346 3-3 3z"/>
  </g>
</svg>